<svg width="30" height="30" viewBox="0 0 30 30" fill="none" xmlns="http://www.w3.org/2000/svg">
<g id="icons8-menu_svgrepo.com">
<g id="Group">
<g id="Group_2">
<path id="Vector" d="M15.0002 3.03131C8.38992 3.03131 3.03125 8.38998 3.03125 15.0002C3.03125 21.6105 8.38992 26.9692 15.0002 26.9692C21.6104 26.9692 26.9691 21.6105 26.9691 15.0002C26.9691 8.38998 21.6104 3.03131 15.0002 3.03131Z" stroke="white" stroke-width="0.5"/>
<path id="Vector_2" d="M2.32812 15.0003C2.32812 21.9822 8.01826 27.6723 15.0002 27.6723C21.9821 27.6723 27.6723 21.9822 27.6723 15.0003C27.6723 8.01832 21.9821 2.32819 15.0002 2.32819C8.01826 2.32819 2.32812 8.01832 2.32812 15.0003ZM4.2344 15.0003C4.2344 9.06792 9.06786 4.23446 15.0002 4.23446C20.9325 4.23446 25.766 9.06792 25.766 15.0003C25.766 20.9326 20.9325 25.766 15.0002 25.766C9.06786 25.766 4.2344 20.9326 4.2344 15.0003Z" fill="white" stroke="white" stroke-width="0.5"/>
<path id="Vector_3" d="M9.72657 12.2877H20.2736C20.7273 12.2877 21.0767 11.9382 21.0767 11.4846C21.0767 11.0309 20.7273 10.6814 20.2736 10.6814H9.72657C9.2729 10.6814 8.92344 11.0309 8.92344 11.4846C8.92344 11.9382 9.2729 12.2877 9.72657 12.2877ZM9.72657 15.8034H20.2736C20.7273 15.8034 21.0767 15.4539 21.0767 15.0002C21.0767 14.5466 20.7273 14.1971 20.2736 14.1971H9.72657C9.2729 14.1971 8.92344 14.5466 8.92344 15.0002C8.92344 15.4539 9.2729 15.8034 9.72657 15.8034Z" fill="white" stroke="white" stroke-width="0.2"/>
<g id="Group_3">
<path id="Vector_4" d="M9.72657 19.3191H20.2736C20.7273 19.3191 21.0767 18.9696 21.0767 18.5159C21.0767 18.0623 20.7273 17.7128 20.2736 17.7128H9.72657C9.2729 17.7128 8.92344 18.0623 8.92344 18.5159C8.92344 18.9696 9.2729 19.3191 9.72657 19.3191Z" fill="white" stroke="white" stroke-width="0.2"/>
</g>
</g>
</g>
</g>
</svg>
