<svg width="51" height="51" viewBox="0 0 51 51" fill="none" xmlns="http://www.w3.org/2000/svg">
<g id="icons8-security-configuration 1">
<path id="Vector" d="M42.1542 13C42.1542 13 43.1958 36.9584 25.6792 46.3334C7.80416 36.9584 8.84582 13 8.84582 13C17.175 13 25.5 4.66669 25.5 4.66669C25.5 4.66669 32.7875 13 42.1542 13Z" fill="#FFC107"/>
<path id="Vector_2" d="M34.875 22.6844L33.0396 19.3844L28.376 20.7885L27.425 16.125H23.576L22.6281 20.7552L18.0052 19.3312L16.1458 22.6146L19.625 25.475L16.125 28.3156L17.9604 31.6115L22.624 30.2115L23.575 34.875H27.424L28.3719 30.2448L32.9906 31.6688L34.85 28.3854L31.375 25.5208L34.875 22.6844ZM30.3094 25.5C30.3094 28.0875 28.1573 30.1875 25.5 30.1875C22.8427 30.1875 20.6906 28.0875 20.6906 25.5C20.6906 22.9125 22.8427 20.8125 25.5 20.8125C28.1573 20.8125 30.3094 22.9125 30.3094 25.5Z" fill="#5D4037"/>
<path id="Vector_3" d="M32.2707 25.5C32.2707 21.7604 29.2394 18.7292 25.4998 18.7292C21.7603 18.7292 18.729 21.7604 18.729 25.5C18.729 29.2396 21.7603 32.2709 25.4998 32.2709C29.2394 32.2709 32.2707 29.2396 32.2707 25.5ZM28.6248 25.5C28.6248 27.225 27.2248 28.625 25.4998 28.625C23.7748 28.625 22.3748 27.225 22.3748 25.5C22.3748 23.775 23.7748 22.375 25.4998 22.375C27.2248 22.375 28.6248 23.775 28.6248 25.5Z" fill="#5D4037"/>
</g>
</svg>
