<svg width="50" height="50" viewBox="0 0 50 50" fill="none" xmlns="http://www.w3.org/2000/svg">
<g id="icons8-annual 1">
<path id="Vector" d="M42.5385 16.2812C42.9261 16.2812 43.2978 16.1282 43.5719 15.8556C43.846 15.5831 44 15.2135 44 14.8281V11.9219C44 10.7657 43.5381 9.65687 42.7158 8.83933C41.8935 8.02179 40.7783 7.5625 39.6154 7.5625H38.1538V6.10938C38.1538 4.9532 37.6919 3.84437 36.8696 3.02683C36.0473 2.20929 34.9321 1.75 33.7692 1.75H10.3846C9.22174 1.75 8.1065 2.20929 7.28422 3.02683C6.46195 3.84437 6 4.9532 6 6.10938V38.0781C6 39.2343 6.46195 40.3431 7.28422 41.1607C8.1065 41.9782 9.22174 42.4375 10.3846 42.4375H11.8462V43.8906C11.8462 45.0468 12.3081 46.1556 13.1304 46.9732C13.9527 47.7907 15.0679 48.25 16.2308 48.25H39.6154C40.7783 48.25 41.8935 47.7907 42.7158 46.9732C43.5381 46.1556 44 45.0468 44 43.8906V20.6406C44 20.2552 43.846 19.8856 43.5719 19.6131C43.2978 19.3406 42.9261 19.1875 42.5385 19.1875C42.1508 19.1875 41.7791 19.3406 41.505 19.6131C41.2309 19.8856 41.0769 20.2552 41.0769 20.6406V43.8906C41.0769 44.276 40.9229 44.6456 40.6488 44.9181C40.3748 45.1907 40.003 45.3438 39.6154 45.3438H16.2308C15.8431 45.3438 15.4714 45.1907 15.1973 44.9181C14.9232 44.6456 14.7692 44.276 14.7692 43.8906V11.9219C14.7692 11.5365 14.9232 11.1669 15.1973 10.8944C15.4714 10.6218 15.8431 10.4688 16.2308 10.4688H39.6154C40.003 10.4688 40.3748 10.6218 40.6488 10.8944C40.9229 11.1669 41.0769 11.5365 41.0769 11.9219V14.8281C41.0769 15.2135 41.2309 15.5831 41.505 15.8556C41.7791 16.1282 42.1508 16.2812 42.5385 16.2812ZM11.8462 11.9219V39.5312H10.3846C9.99699 39.5312 9.62524 39.3782 9.35115 39.1056C9.07706 38.8331 8.92308 38.4635 8.92308 38.0781V6.10938C8.92308 5.72398 9.07706 5.35437 9.35115 5.08186C9.62524 4.80935 9.99699 4.65625 10.3846 4.65625H33.7692C34.1569 4.65625 34.5286 4.80935 34.8027 5.08186C35.0768 5.35437 35.2308 5.72398 35.2308 6.10938V7.5625H16.2308C15.0679 7.5625 13.9527 8.02179 13.1304 8.83933C12.3081 9.65687 11.8462 10.7657 11.8462 11.9219Z" fill="#2266C4"/>
<path id="Vector_2" d="M28 20.5417C27.6022 20.5417 27.2206 20.388 26.9393 20.1145C26.658 19.841 26.5 19.4701 26.5 19.0833C26.5 18.6966 26.658 18.3256 26.9393 18.0521C27.2206 17.7786 27.6022 17.625 28 17.625H31C31.3978 17.625 31.7794 17.4714 32.0607 17.1979C32.342 16.9244 32.5 16.5534 32.5 16.1667C32.5 15.7799 32.342 15.409 32.0607 15.1355C31.7794 14.862 31.3978 14.7083 31 14.7083H29.5C29.5 14.3216 29.342 13.9506 29.0607 13.6771C28.7794 13.4036 28.3978 13.25 28 13.25C27.6022 13.25 27.2206 13.4036 26.9393 13.6771C26.658 13.9506 26.5 14.3216 26.5 14.7083V14.9708C25.5079 15.3208 24.674 15.9986 24.1438 16.8858C23.6137 17.773 23.4212 18.8131 23.5999 19.8243C23.7786 20.8355 24.3172 21.7535 25.1215 22.4178C25.9258 23.0821 26.9447 23.4504 28 23.4583C28.3978 23.4583 28.7794 23.612 29.0607 23.8855C29.342 24.159 29.5 24.5299 29.5 24.9167C29.5 25.3034 29.342 25.6744 29.0607 25.9479C28.7794 26.2214 28.3978 26.375 28 26.375H25C24.6022 26.375 24.2206 26.5286 23.9393 26.8021C23.658 27.0756 23.5 27.4466 23.5 27.8333C23.5 28.2201 23.658 28.591 23.9393 28.8645C24.2206 29.138 24.6022 29.2917 25 29.2917H26.5C26.5 29.6784 26.658 30.0494 26.9393 30.3229C27.2206 30.5964 27.6022 30.75 28 30.75C28.3978 30.75 28.7794 30.5964 29.0607 30.3229C29.342 30.0494 29.5 29.6784 29.5 29.2917V29.0292C30.4921 28.6792 31.326 28.0014 31.8562 27.1142C32.3863 26.227 32.5788 25.1869 32.4001 24.1757C32.2214 23.1645 31.6828 22.2465 30.8785 21.5822C30.0742 20.9179 29.0553 20.5496 28 20.5417Z" fill="#2266C4"/>
<path id="Vector_3" d="M22 36.75H19C18.6022 36.75 18.2206 36.592 17.9393 36.3107C17.658 36.0294 17.5 35.6478 17.5 35.25C17.5 34.8522 17.658 34.4706 17.9393 34.1893C18.2206 33.908 18.6022 33.75 19 33.75H22C22.3978 33.75 22.7794 33.908 23.0607 34.1893C23.342 34.4706 23.5 34.8522 23.5 35.25C23.5 35.6478 23.342 36.0294 23.0607 36.3107C22.7794 36.592 22.3978 36.75 22 36.75Z" fill="#2266C4"/>
<path id="Vector_4" d="M36.5625 36.75H27.9375C27.5563 36.75 27.1906 36.592 26.921 36.3107C26.6514 36.0294 26.5 35.6478 26.5 35.25C26.5 34.8522 26.6514 34.4706 26.921 34.1893C27.1906 33.908 27.5563 33.75 27.9375 33.75H36.5625C36.9437 33.75 37.3094 33.908 37.579 34.1893C37.8486 34.4706 38 34.8522 38 35.25C38 35.6478 37.8486 36.0294 37.579 36.3107C37.3094 36.592 36.9437 36.75 36.5625 36.75Z" fill="#2266C4"/>
<path id="Vector_5" d="M22 42.75H19C18.6022 42.75 18.2206 42.592 17.9393 42.3107C17.658 42.0294 17.5 41.6478 17.5 41.25C17.5 40.8522 17.658 40.4706 17.9393 40.1893C18.2206 39.908 18.6022 39.75 19 39.75H22C22.3978 39.75 22.7794 39.908 23.0607 40.1893C23.342 40.4706 23.5 40.8522 23.5 41.25C23.5 41.6478 23.342 42.0294 23.0607 42.3107C22.7794 42.592 22.3978 42.75 22 42.75Z" fill="#2266C4"/>
<path id="Vector_6" d="M36.5625 42.75H27.9375C27.5563 42.75 27.1906 42.592 26.921 42.3107C26.6514 42.0294 26.5 41.6478 26.5 41.25C26.5 40.8522 26.6514 40.4706 26.921 40.1893C27.1906 39.908 27.5563 39.75 27.9375 39.75H36.5625C36.9437 39.75 37.3094 39.908 37.579 40.1893C37.8486 40.4706 38 40.8522 38 41.25C38 41.6478 37.8486 42.0294 37.579 42.3107C37.3094 42.592 36.9437 42.75 36.5625 42.75Z" fill="#2266C4"/>
</g>
</svg>
