<svg width="45" height="55" viewBox="0 0 45 55" fill="none" xmlns="http://www.w3.org/2000/svg">
<g id="Frame 78">
<path id="Vector" d="M1.77193 5C1.5672 5 1.37086 5.08497 1.22609 5.2362C1.08133 5.38744 1 5.59257 1 5.80645V54.1935C1 54.4074 1.08133 54.6125 1.22609 54.7637C1.37086 54.915 1.5672 55 1.77193 55H26.4737C26.6785 55 26.8749 54.9152 27.0198 54.7641L31.6514 49.9254C31.7961 49.7739 31.8773 49.5687 31.8772 49.3548V5.80645C31.8772 5.59257 31.7959 5.38744 31.6511 5.2362C31.5063 5.08497 31.31 5 31.1053 5H1.77193ZM36.8947 5C36.3831 5.00053 35.8925 5.21312 35.5307 5.5911C35.1689 5.96908 34.9654 6.48158 34.9649 7.01613V9.8387C34.7602 9.8387 34.5638 9.92367 34.4191 10.0749C34.2743 10.2261 34.193 10.4313 34.193 10.6452V35.6451C33.9883 35.6451 33.7919 35.7301 33.6471 35.8813C33.5024 36.0326 33.4211 36.2377 33.4211 36.4516V47.7419C33.4211 47.9558 33.5024 48.1609 33.6471 48.3121C33.7919 48.4634 33.9883 48.5483 34.193 48.5483H34.4304L36.558 54.4768C36.6131 54.6305 36.7119 54.7629 36.8411 54.8564C36.9702 54.9499 37.1236 55 37.2807 55C37.4378 55 37.5912 54.9499 37.7203 54.8564C37.8495 54.7629 37.9483 54.6305 38.0034 54.4768L40.131 48.5483H40.3684C40.5732 48.5483 40.7695 48.4634 40.9143 48.3121C41.059 48.1609 41.1404 47.9558 41.1404 47.7419V36.4516C41.1404 36.2377 41.059 36.0326 40.9143 35.8813C40.7695 35.7301 40.5732 35.6451 40.3684 35.6451V16.2903H41.1404V21.9355C41.1404 22.1493 41.2217 22.3545 41.3664 22.5057C41.5112 22.657 41.7076 22.7419 41.9123 22.7419H44.2281C44.4328 22.7419 44.6291 22.657 44.7739 22.5057C44.9187 22.3545 45 22.1493 45 21.9355V10.6452C45 10.4313 44.9187 10.2261 44.7739 10.0749C44.6291 9.92367 44.4328 9.8387 44.2281 9.8387H41.9123C41.7076 9.8387 41.5112 9.92367 41.3664 10.0749C41.2217 10.2261 41.1404 10.4313 41.1404 10.6452V14.6774H40.3684V10.6452C40.3684 10.4313 40.2871 10.2261 40.1423 10.0749C39.9976 9.92367 39.8012 9.8387 39.5965 9.8387V7.01613C39.596 6.48158 39.3925 5.96908 39.0307 5.5911C38.6689 5.21312 38.1783 5.00053 37.6667 5H36.8947ZM2.54386 6.6129H30.3333V48.5483H26.4737C26.269 48.5483 26.0726 48.6333 25.9278 48.7845C25.7831 48.9358 25.7018 49.1409 25.7018 49.3548V53.387H2.54386V6.6129ZM36.8947 6.6129H37.6667C37.769 6.6129 37.8672 6.65538 37.9396 6.731C38.012 6.80662 38.0526 6.90918 38.0526 7.01613V9.8387H36.5088V7.01613C36.5088 6.90918 36.5494 6.80662 36.6218 6.731C36.6942 6.65538 36.7924 6.6129 36.8947 6.6129ZM4.85965 9.03225C4.65492 9.03225 4.45858 9.11722 4.31381 9.26846C4.16905 9.4197 4.08772 9.62482 4.08772 9.8387V15.4839C4.08772 15.6977 4.16905 15.9029 4.31381 16.0541C4.45858 16.2053 4.65492 16.2903 4.85965 16.2903H8.7193C8.92403 16.2903 9.12037 16.2053 9.26513 16.0541C9.4099 15.9029 9.49123 15.6977 9.49123 15.4839V9.8387C9.49123 9.62482 9.4099 9.4197 9.26513 9.26846C9.12037 9.11722 8.92403 9.03225 8.7193 9.03225H4.85965ZM5.63158 10.6452H7.94737V14.6774H5.63158V10.6452ZM35.7368 11.4516H38.8246V35.6451H35.7368V11.4516ZM42.6842 11.4516H43.4561V21.129H42.6842V11.4516ZM4.85965 17.9032C4.65492 17.9032 4.45858 17.9882 4.31381 18.1394C4.16905 18.2907 4.08772 18.4958 4.08772 18.7097C4.08772 18.9235 4.16905 19.1287 4.31381 19.2799C4.45858 19.4311 4.65492 19.5161 4.85965 19.5161H14.8947C15.0995 19.5161 15.2958 19.4311 15.4406 19.2799C15.5853 19.1287 15.6667 18.9235 15.6667 18.7097C15.6667 18.4958 15.5853 18.2907 15.4406 18.1394C15.2958 17.9882 15.0995 17.9032 14.8947 17.9032H4.85965ZM4.85965 20.3226C4.65492 20.3226 4.45858 20.4075 4.31381 20.5588C4.16905 20.71 4.08772 20.9151 4.08772 21.129C4.08772 21.3429 4.16905 21.548 4.31381 21.6993C4.45858 21.8505 4.65492 21.9355 4.85965 21.9355H11.0351C11.2398 21.9355 11.4362 21.8505 11.5809 21.6993C11.7257 21.548 11.807 21.3429 11.807 21.129C11.807 20.9151 11.7257 20.71 11.5809 20.5588C11.4362 20.4075 11.2398 20.3226 11.0351 20.3226H4.85965ZM4.85965 23.5484C4.65492 23.5484 4.45858 23.6333 4.31381 23.7846C4.16905 23.9358 4.08772 24.1409 4.08772 24.3548C4.08772 24.5687 4.16905 24.7738 4.31381 24.9251C4.45858 25.0763 4.65492 25.1613 4.85965 25.1613H28.0175C28.2223 25.1613 28.4186 25.0763 28.5634 24.9251C28.7081 24.7738 28.7895 24.5687 28.7895 24.3548C28.7895 24.1409 28.7081 23.9358 28.5634 23.7846C28.4186 23.6333 28.2223 23.5484 28.0175 23.5484H4.85965ZM4.85965 25.9677C4.65492 25.9677 4.45858 26.0527 4.31381 26.2039C4.16905 26.3552 4.08772 26.5603 4.08772 26.7742C4.08772 26.9881 4.16905 27.1932 4.31381 27.3444C4.45858 27.4957 4.65492 27.5806 4.85965 27.5806H28.0175C28.2223 27.5806 28.4186 27.4957 28.5634 27.3444C28.7081 27.1932 28.7895 26.9881 28.7895 26.7742C28.7895 26.5603 28.7081 26.3552 28.5634 26.2039C28.4186 26.0527 28.2223 25.9677 28.0175 25.9677H4.85965ZM4.85965 28.3871C4.65492 28.3871 4.45858 28.472 4.31381 28.6233C4.16905 28.7745 4.08772 28.9796 4.08772 29.1935C4.08772 29.4074 4.16905 29.6125 4.31381 29.7638C4.45858 29.915 4.65492 30 4.85965 30H18.7544C18.9591 30 19.1555 29.915 19.3002 29.7638C19.445 29.6125 19.5263 29.4074 19.5263 29.1935C19.5263 28.9796 19.445 28.7745 19.3002 28.6233C19.1555 28.472 18.9591 28.3871 18.7544 28.3871H4.85965ZM4.85965 30.833C4.65492 30.833 4.45858 30.918 4.31381 31.0692C4.16905 31.2204 4.08772 31.4256 4.08772 31.6395C4.08772 31.8533 4.16905 32.0585 4.31381 32.2097C4.45858 32.3609 4.65492 32.4459 4.85965 32.4459H28.0175C28.2223 32.4459 28.4186 32.3609 28.5634 32.2097C28.7081 32.0585 28.7895 31.8533 28.7895 31.6395C28.7895 31.4256 28.7081 31.2204 28.5634 31.0692C28.4186 30.918 28.2223 30.833 28.0175 30.833H4.85965ZM4.85965 33.2524C4.65492 33.2524 4.45858 33.3373 4.31381 33.4886C4.16905 33.6398 4.08772 33.8449 4.08772 34.0588C4.08772 34.2727 4.16905 34.4778 4.31381 34.6291C4.45858 34.7803 4.65492 34.8653 4.85965 34.8653H18.7544C18.9591 34.8653 19.1555 34.7803 19.3002 34.6291C19.445 34.4778 19.5263 34.2727 19.5263 34.0588C19.5263 33.8449 19.445 33.6398 19.3002 33.4886C19.1555 33.3373 18.9591 33.2524 18.7544 33.2524H4.85965ZM34.9649 37.258H39.5965V46.9354H34.9649V37.258ZM22.614 38.8709C22.4093 38.8709 22.213 38.9559 22.0682 39.1071C21.9234 39.2584 21.8421 39.4635 21.8421 39.6774C21.8421 39.8913 21.9234 40.0964 22.0682 40.2476C22.213 40.3989 22.4093 40.4838 22.614 40.4838H28.0175C28.2223 40.4838 28.4186 40.3989 28.5634 40.2476C28.7081 40.0964 28.7895 39.8913 28.7895 39.6774C28.7895 39.4635 28.7081 39.2584 28.5634 39.1071C28.4186 38.9559 28.2223 38.8709 28.0175 38.8709H22.614ZM25.7018 41.2903C25.497 41.2903 25.3007 41.3752 25.1559 41.5265C25.0112 41.6777 24.9298 41.8829 24.9298 42.0967C24.9298 42.3106 25.0112 42.5157 25.1559 42.667C25.3007 42.8182 25.497 42.9032 25.7018 42.9032H28.0175C28.2223 42.9032 28.4186 42.8182 28.5634 42.667C28.7081 42.5157 28.7895 42.3106 28.7895 42.0967C28.7895 41.8829 28.7081 41.6777 28.5634 41.5265C28.4186 41.3752 28.2223 41.2903 28.0175 41.2903H25.7018ZM9.77335 43.6031C9.50091 43.6039 9.22489 43.6247 8.9479 43.6663C7.86044 43.8296 6.90623 44.2792 6.1864 44.9677C5.34982 45.7671 4.86641 46.8991 4.8915 47.9959C4.92045 49.2388 5.62775 50.4093 6.65152 50.9072C6.837 50.9962 7.04865 51.0048 7.24018 50.9312C7.43172 50.8576 7.58756 50.7077 7.67365 50.5144C7.75973 50.3211 7.76905 50.1 7.69956 49.8995C7.63007 49.6991 7.48744 49.5355 7.30284 49.4446C6.80687 49.2036 6.44983 48.5918 6.43536 47.9567C6.41992 47.3196 6.71718 46.6461 7.22858 46.1571C7.84709 45.5654 8.62477 45.3447 9.16802 45.2631C10.214 45.1058 11.2194 45.3447 11.9344 45.9183C11.8326 45.9527 11.7324 45.9924 11.6344 46.0372C10.6762 46.4737 9.99788 47.3971 9.90622 48.39C9.79429 49.6017 10.5902 50.7429 11.6806 50.9334C12.3 51.0413 12.9311 50.8417 13.456 50.3699C13.9046 49.9601 14.2241 49.4183 14.3727 48.8155C14.4674 48.4142 14.4962 47.9991 14.4577 47.5877C14.8485 47.7208 15.2391 47.8942 15.6463 48.0746L15.7892 48.138C16.5138 48.4576 17.2308 48.7559 18.0239 48.8789C19.2995 49.0785 20.7121 48.7953 22.1103 48.0614C23.3029 47.4344 24.3335 46.5805 25.3303 45.7549C25.4906 45.6219 25.5937 45.4278 25.617 45.2154C25.6404 45.0029 25.582 44.7895 25.4547 44.622C25.3274 44.4545 25.1417 44.3467 24.9384 44.3221C24.735 44.2975 24.5306 44.3582 24.3701 44.4909C23.4351 45.2661 22.4674 46.0684 21.4166 46.6198C20.6417 47.0271 19.4625 47.4728 18.2516 47.2843C17.6369 47.1886 17.0204 46.9303 16.3904 46.6521L16.2484 46.5897C15.6097 46.3064 14.9479 46.0131 14.2242 45.8498C14.1036 45.8226 13.9839 45.7994 13.8652 45.7813C13.6136 45.3583 13.2936 44.9841 12.9195 44.6754C12.0689 43.9743 10.9539 43.5999 9.77335 43.6031ZM12.8539 47.3538C12.9475 47.7027 12.9549 48.0707 12.8752 48.4233C12.7594 48.9042 12.3233 49.4103 11.9354 49.3428C11.6536 49.2934 11.4105 48.8982 11.4423 48.5444C11.4809 48.1321 11.806 47.7187 12.2518 47.5151C12.4436 47.4299 12.6466 47.3756 12.8539 47.3538ZM36.0783 48.5483H38.4831L37.2807 51.8972L36.0783 48.5483ZM27.2456 50.1612H29.242L27.2456 52.2469V50.1612Z" fill="#2266C4"/>
<path id="Vector_2" d="M4.78125 9C4.57405 9 4.37534 9.08507 4.22882 9.23649C4.08231 9.38792 4 9.59329 4 9.80744V15.4595C4 15.6737 4.08231 15.879 4.22882 16.0305C4.37534 16.1819 4.57405 16.267 4.78125 16.267H8.6875C8.8947 16.267 9.09341 16.1819 9.23993 16.0305C9.38644 15.879 9.46875 15.6737 9.46875 15.4595V9.80744C9.46875 9.59329 9.38644 9.38792 9.23993 9.23649C9.09341 9.08507 8.8947 9 8.6875 9H4.78125ZM5.5625 10.6149H7.90625V14.6521H5.5625V10.6149ZM4.78125 17.8818C4.57405 17.8818 4.37534 17.9669 4.22882 18.1183C4.08231 18.2698 4 18.4751 4 18.6893C4 18.9034 4.08231 19.1088 4.22882 19.2602C4.37534 19.4117 4.57405 19.4967 4.78125 19.4967H14.9375C15.1447 19.4967 15.3434 19.4117 15.4899 19.2602C15.6364 19.1088 15.7188 18.9034 15.7188 18.6893C15.7188 18.4751 15.6364 18.2698 15.4899 18.1183C15.3434 17.9669 15.1447 17.8818 14.9375 17.8818H4.78125ZM4.78125 20.3042C4.57405 20.3042 4.37534 20.3892 4.22882 20.5407C4.08231 20.6921 4 20.8975 4 21.1116C4 21.3257 4.08231 21.5311 4.22882 21.6825C4.37534 21.834 4.57405 21.919 4.78125 21.919H11.0313C11.2385 21.919 11.4372 21.834 11.5837 21.6825C11.7302 21.5311 11.8125 21.3257 11.8125 21.1116C11.8125 20.8975 11.7302 20.6921 11.5837 20.5407C11.4372 20.3892 11.2385 20.3042 11.0313 20.3042H4.78125ZM4.78125 23.5339C4.57405 23.5339 4.37534 23.619 4.22882 23.7704C4.08231 23.9218 4 24.1272 4 24.3414C4 24.5555 4.08231 24.7609 4.22882 24.9123C4.37534 25.0637 4.57405 25.1488 4.78125 25.1488H28.2187C28.4259 25.1488 28.6247 25.0637 28.7712 24.9123C28.9177 24.7609 29 24.5555 29 24.3414C29 24.1272 28.9177 23.9218 28.7712 23.7704C28.6247 23.619 28.4259 23.5339 28.2187 23.5339H4.78125ZM4.78125 25.9562C4.57405 25.9562 4.37534 26.0413 4.22882 26.1927C4.08231 26.3442 4 26.5495 4 26.7637C4 26.9778 4.08231 27.1832 4.22882 27.3346C4.37534 27.4861 4.57405 27.5711 4.78125 27.5711H28.2187C28.4259 27.5711 28.6247 27.4861 28.7712 27.3346C28.9177 27.1832 29 26.9778 29 26.7637C29 26.5495 28.9177 26.3442 28.7712 26.1927C28.6247 26.0413 28.4259 25.9562 28.2187 25.9562H4.78125ZM4.78125 28.3786C4.57405 28.3786 4.37534 28.4636 4.22882 28.6151C4.08231 28.7665 4 28.9719 4 29.186C4 29.4002 4.08231 29.6055 4.22882 29.757C4.37534 29.9084 4.57405 29.9934 4.78125 29.9934H18.8438C19.051 29.9934 19.2497 29.9084 19.3962 29.757C19.5427 29.6055 19.625 29.4002 19.625 29.186C19.625 28.9719 19.5427 28.7665 19.3962 28.6151C19.2497 28.4636 19.051 28.3786 18.8438 28.3786H4.78125ZM4.78125 30.8275C4.57405 30.8275 4.37534 30.9126 4.22882 31.064C4.08231 31.2154 4 31.4208 4 31.6349C4 31.8491 4.08231 32.0545 4.22882 32.2059C4.37534 32.3573 4.57405 32.4424 4.78125 32.4424H28.2187C28.4259 32.4424 28.6247 32.3573 28.7712 32.2059C28.9177 32.0545 29 31.8491 29 31.6349C29 31.4208 28.9177 31.2154 28.7712 31.064C28.6247 30.9126 28.4259 30.8275 28.2187 30.8275H4.78125ZM4.78125 33.2498C4.57405 33.2498 4.37534 33.3349 4.22882 33.4863C4.08231 33.6377 4 33.8431 4 34.0573C4 34.2714 4.08231 34.4768 4.22882 34.6282C4.37534 34.7796 4.57405 34.8647 4.78125 34.8647H18.8438C19.051 34.8647 19.2497 34.7796 19.3962 34.6282C19.5427 34.4768 19.625 34.2714 19.625 34.0573C19.625 33.8431 19.5427 33.6377 19.3962 33.4863C19.2497 33.3349 19.051 33.2498 18.8438 33.2498H4.78125ZM22.75 38.8753C22.5428 38.8753 22.3441 38.9604 22.1976 39.1118C22.0511 39.2632 21.9688 39.4686 21.9688 39.6827C21.9688 39.8969 22.0511 40.1022 22.1976 40.2537C22.3441 40.4051 22.5428 40.4902 22.75 40.4902H28.2187C28.4259 40.4902 28.6247 40.4051 28.7712 40.2537C28.9177 40.1022 29 39.8969 29 39.6827C29 39.4686 28.9177 39.2632 28.7712 39.1118C28.6247 38.9604 28.4259 38.8753 28.2187 38.8753H22.75ZM25.875 41.2976C25.6678 41.2976 25.4691 41.3827 25.3226 41.5341C25.1761 41.6855 25.0938 41.8909 25.0938 42.105C25.0938 42.3192 25.1761 42.5246 25.3226 42.676C25.4691 42.8274 25.6678 42.9125 25.875 42.9125H28.2187C28.4259 42.9125 28.6247 42.8274 28.7712 42.676C28.9177 42.5246 29 42.3192 29 42.105C29 41.8909 28.9177 41.6855 28.7712 41.5341C28.6247 41.3827 28.4259 41.2976 28.2187 41.2976H25.875ZM9.75428 43.6133C9.47855 43.614 9.1992 43.6349 8.91886 43.6766C7.81828 43.8401 6.85254 44.2902 6.12402 44.9796C5.27734 45.78 4.78809 46.9133 4.81348 48.0114C4.84278 49.2559 5.55862 50.4278 6.59476 50.9264C6.78248 51.0154 6.99668 51.024 7.19052 50.9503C7.38437 50.8766 7.5421 50.7266 7.62922 50.533C7.71635 50.3395 7.72577 50.1181 7.65545 49.9174C7.58512 49.7167 7.44077 49.5529 7.25394 49.4619C6.75198 49.2207 6.39063 48.6081 6.37598 47.9722C6.36036 47.3343 6.66121 46.6599 7.17879 46.1704C7.80476 45.578 8.59183 45.357 9.14164 45.2753C10.2002 45.1178 11.2178 45.357 11.9414 45.9313C11.8384 45.9657 11.737 46.0055 11.6378 46.0504C10.6681 46.4874 9.98152 47.4119 9.88875 48.4061C9.77547 49.6193 10.581 50.7618 11.6845 50.9526C12.3115 51.0606 12.9502 50.8608 13.4814 50.3884C13.9354 49.9781 14.2587 49.4356 14.4092 48.8321C14.505 48.4303 14.5341 48.0146 14.4952 47.6028C14.8907 47.736 15.286 47.9096 15.6982 48.0903L15.8427 48.1538C16.5761 48.4737 17.3017 48.7724 18.1045 48.8955C19.3955 49.0954 20.8251 48.8118 22.2402 48.0771C23.4472 47.4493 24.4903 46.5943 25.4991 45.7677C25.6613 45.6345 25.7656 45.4402 25.7893 45.2275C25.8129 45.0148 25.7538 44.8011 25.6249 44.6334C25.4961 44.4658 25.3082 44.3578 25.1024 44.3331C24.8966 44.3085 24.6898 44.3693 24.5273 44.5021C23.581 45.2783 22.6015 46.0816 21.5381 46.6337C20.7539 47.0414 19.5605 47.4877 18.3349 47.299C17.7128 47.2031 17.0889 46.9446 16.4512 46.666L16.3075 46.6035C15.6611 46.3199 14.9913 46.0262 14.2589 45.8627C14.1368 45.8355 14.0156 45.8123 13.8955 45.7941C13.6409 45.3706 13.317 44.9959 12.9384 44.6868C12.0775 43.9849 10.9491 43.6101 9.75428 43.6133ZM12.872 47.3686C12.9668 47.7179 12.9742 48.0863 12.8936 48.4394C12.7764 48.9208 12.335 49.4276 11.9424 49.36C11.6572 49.3105 11.4112 48.9149 11.4434 48.5606C11.4825 48.1478 11.8115 47.7339 12.2626 47.53C12.4567 47.4448 12.6622 47.3903 12.872 47.3686Z" fill="#2266C4"/>
</g>
</svg>
