<svg width="25" height="25" viewBox="0 0 25 25" fill="none" xmlns="http://www.w3.org/2000/svg">
<g id="back_svgrepo.com">
<path id="Vector" d="M3.90625 13.5312L19.5312 13.5312C19.8048 13.5312 20.0671 13.4226 20.2605 13.2292C20.4539 13.0358 20.5625 12.7735 20.5625 12.5C20.5625 12.2265 20.4539 11.9642 20.2605 11.7708C20.0671 11.5774 19.8048 11.4688 19.5312 11.4688L3.90625 11.4687C3.63275 11.4687 3.37044 11.5774 3.17705 11.7708C2.98365 11.9642 2.875 12.2265 2.875 12.5C2.875 12.7735 2.98365 13.0358 3.17705 13.2292C3.37044 13.4226 3.63274 13.5312 3.90625 13.5312Z" fill="white" stroke="white" stroke-width="0.5"/>
<path id="Vector_2" d="M18.8543 12.5L12.5514 18.8013L12.5514 18.8013C12.3578 18.9949 12.2491 19.2575 12.2491 19.5312C12.2491 19.805 12.3578 20.0676 12.5514 20.2611C12.745 20.4547 13.0076 20.5635 13.2813 20.5635C13.5551 20.5635 13.8176 20.4547 14.0112 20.2611L13.8344 20.0844L14.0112 20.2611L21.0422 13.2301L18.8543 12.5ZM18.8543 12.5L12.5514 6.19866L12.5514 6.19864C12.3578 6.00506 12.2491 5.74251 12.2491 5.46874C12.2491 5.19497 12.3578 4.93242 12.5514 4.73884C12.745 4.54526 13.0076 4.43651 13.2813 4.43651C13.5551 4.43651 13.8176 4.54526 14.0112 4.73884L21.0422 11.7699C21.0423 11.7699 21.0423 11.7699 21.0423 11.7699C21.1383 11.8657 21.2145 11.9795 21.2665 12.1047L21.0362 12.2003L21.2665 12.1047C21.3185 12.23 21.3452 12.3643 21.3452 12.5C21.3452 12.6356 21.3185 12.7699 21.2665 12.8952C21.2145 13.0204 21.1384 13.1341 21.0425 13.2299L18.8543 12.5Z" fill="white" stroke="white" stroke-width="0.5"/>
</g>
</svg>
