<svg width="51" height="50" viewBox="0 0 51 50" fill="none" xmlns="http://www.w3.org/2000/svg">
<g id="icons8-homework (1) 1">
<path id="Vector" d="M25.5359 3.33331C25.3447 3.32901 25.1542 3.35764 24.9728 3.41794L4.97276 10.0846C4.55331 10.2246 4.20663 10.5254 4.00894 10.9209C3.81126 11.3165 3.77875 11.7743 3.91859 12.1938C4.05842 12.6133 4.35913 12.9601 4.7546 13.1579C5.15007 13.3557 5.60791 13.3884 6.02745 13.2487L25.5001 6.75779L44.9728 13.2487C45.1805 13.318 45.3999 13.3457 45.6184 13.3302C45.8368 13.3147 46.0501 13.2563 46.246 13.1584C46.4419 13.0604 46.6166 12.9249 46.7601 12.7594C46.9036 12.594 47.0132 12.4019 47.0824 12.1941C47.1517 11.9863 47.1793 11.7669 47.1638 11.5484C47.1483 11.33 47.0898 11.1167 46.9919 10.9208C46.8939 10.7249 46.7583 10.5503 46.5928 10.4068C46.4274 10.2633 46.2352 10.1538 46.0275 10.0846L26.0274 3.41794C25.8688 3.36524 25.7031 3.33671 25.5359 3.33331ZM8.83344 15C7.91344 15 7.16677 15.7466 7.16677 16.6666V41.6666C7.16677 42.5866 7.91344 43.3333 8.83344 43.3333H15.5001C16.4201 43.3333 17.1668 42.5866 17.1668 41.6666V16.6666C17.1668 15.7466 16.4201 15 15.5001 15H8.83344ZM35.5001 16.6666C34.5801 16.6666 33.8334 17.4133 33.8334 18.3333V41.6666C33.8334 42.5866 34.5801 43.3333 35.5001 43.3333H42.1668C43.0868 43.3333 43.8334 42.5866 43.8334 41.6666V18.3333C43.8334 17.4133 43.0868 16.6666 42.1668 16.6666H35.5001ZM9.66677 20H14.6668C15.1268 20 15.5001 20.3733 15.5001 20.8333C15.5001 21.2933 15.1268 21.6666 14.6668 21.6666H9.66677C9.20677 21.6666 8.83344 21.2933 8.83344 20.8333C8.83344 20.3733 9.20677 20 9.66677 20ZM22.1668 20C21.2468 20 20.5001 20.7466 20.5001 21.6666V41.6666C20.5001 42.5866 21.2468 43.3333 22.1668 43.3333H28.8334C29.7534 43.3333 30.5001 42.5866 30.5001 41.6666V21.6666C30.5001 20.7466 29.7534 20 28.8334 20H22.1668ZM36.3334 21.6666H41.3334C41.7934 21.6666 42.1668 22.04 42.1668 22.5C42.1668 22.96 41.7934 23.3333 41.3334 23.3333H36.3334C35.8734 23.3333 35.5001 22.96 35.5001 22.5C35.5001 22.04 35.8734 21.6666 36.3334 21.6666ZM23.0001 25H28.0001C28.4601 25 28.8334 25.3733 28.8334 25.8333C28.8334 26.2933 28.4601 26.6666 28.0001 26.6666H23.0001C22.5401 26.6666 22.1668 26.2933 22.1668 25.8333C22.1668 25.3733 22.5401 25 23.0001 25ZM9.66677 33.3333H14.6668C15.1268 33.3333 15.5001 33.7066 15.5001 34.1666C15.5001 34.6266 15.1268 35 14.6668 35H9.66677C9.20677 35 8.83344 34.6266 8.83344 34.1666C8.83344 33.7066 9.20677 33.3333 9.66677 33.3333ZM23.0001 33.3333H28.0001C28.4601 33.3333 28.8334 33.7066 28.8334 34.1666C28.8334 34.6266 28.4601 35 28.0001 35H23.0001C22.5401 35 22.1668 34.6266 22.1668 34.1666C22.1668 33.7066 22.5401 33.3333 23.0001 33.3333ZM36.3334 33.3333H41.3334C41.7934 33.3333 42.1668 33.7066 42.1668 34.1666C42.1668 34.6266 41.7934 35 41.3334 35H36.3334C35.8734 35 35.5001 34.6266 35.5001 34.1666C35.5001 33.7066 35.8734 33.3333 36.3334 33.3333ZM9.66677 36.6666H14.6668C15.1268 36.6666 15.5001 37.04 15.5001 37.5C15.5001 37.96 15.1268 38.3333 14.6668 38.3333H9.66677C9.20677 38.3333 8.83344 37.96 8.83344 37.5C8.83344 37.04 9.20677 36.6666 9.66677 36.6666ZM23.0001 36.6666H28.0001C28.4601 36.6666 28.8334 37.04 28.8334 37.5C28.8334 37.96 28.4601 38.3333 28.0001 38.3333H23.0001C22.5401 38.3333 22.1668 37.96 22.1668 37.5C22.1668 37.04 22.5401 36.6666 23.0001 36.6666ZM36.3334 36.6666H41.3334C41.7934 36.6666 42.1668 37.04 42.1668 37.5C42.1668 37.96 41.7934 38.3333 41.3334 38.3333H36.3334C35.8734 38.3333 35.5001 37.96 35.5001 37.5C35.5001 37.04 35.8734 36.6666 36.3334 36.6666Z" fill="#2266C4"/>
<path id="Vector_2" d="M25.5359 3.33331C25.3447 3.32901 25.1542 3.35764 24.9728 3.41794L4.97276 10.0846C4.55331 10.2246 4.20663 10.5254 4.00894 10.9209C3.81126 11.3165 3.77875 11.7743 3.91859 12.1938C4.05842 12.6133 4.35913 12.9601 4.7546 13.1579C5.15007 13.3557 5.60791 13.3884 6.02745 13.2487L25.5001 6.75779L44.9728 13.2487C45.1805 13.318 45.3999 13.3457 45.6184 13.3302C45.8368 13.3147 46.0501 13.2563 46.246 13.1584C46.4419 13.0604 46.6166 12.9249 46.7601 12.7594C46.9036 12.594 47.0132 12.4019 47.0824 12.1941C47.1517 11.9863 47.1793 11.7669 47.1638 11.5484C47.1483 11.33 47.0898 11.1167 46.9919 10.9208C46.8939 10.7249 46.7583 10.5503 46.5928 10.4068C46.4274 10.2633 46.2352 10.1538 46.0275 10.0846L26.0274 3.41794C25.8688 3.36524 25.7031 3.33671 25.5359 3.33331Z" fill="#2266C4"/>
</g>
</svg>
