<svg width="51" height="54" viewBox="0 0 51 54" fill="none" xmlns="http://www.w3.org/2000/svg">
<g id="Frame 82">
<path id="Vector" fill-rule="evenodd" clip-rule="evenodd" d="M0.5 46.1943V7.80785C0.5 6.40356 1.63908 5.26339 3.04446 5.26339H7.02255V9.05453C7.02255 9.95449 7.99642 10.6849 9.19637 10.6849C10.3952 10.6849 11.3702 9.95449 11.3702 9.05453V8.52086C11.3702 9.12083 10.6365 9.60777 9.73874 9.60777C8.83878 9.60777 8.10837 9.12083 8.10837 8.52086V2.00048C8.10837 1.4016 8.83878 0.913574 9.73874 0.913574C10.6376 0.913574 11.3702 1.4016 11.3702 2.00048V5.2623H30.9378V9.05345C30.9378 9.95341 31.9117 10.6838 33.1106 10.6838C34.3073 10.6838 35.2833 9.95341 35.2833 9.05345V8.6002C35.2203 9.16431 34.5138 9.60777 33.654 9.60777C32.7541 9.60777 32.0226 9.12083 32.0226 8.52086V2.00048C32.0226 1.4016 32.7541 0.913574 33.654 0.913574C34.554 0.913574 35.2876 1.4016 35.2876 2.00048V5.2623H40.3559C41.7602 5.2623 42.8993 6.40247 42.8993 7.80676V31.6753C42.195 31.5025 41.4656 31.396 40.72 31.359V15.0325C40.7157 15.0325 40.7113 15.0315 40.707 15.0315C39.8027 15.0315 38.9951 15.3934 38.3766 15.9749C38.168 16.1705 37.8419 16.1705 37.6332 15.9749C37.0202 15.401 36.1898 15.0434 35.2768 15.0434C34.3649 15.0434 33.5334 15.3999 32.9204 15.9749C32.6954 16.1847 32.3726 16.1488 32.1769 15.9738C31.5639 15.3999 30.7335 15.0423 29.8205 15.0423C28.9162 15.0423 28.1086 15.4043 27.4902 15.9858C27.2815 16.1814 26.9554 16.1814 26.7467 15.9858C26.1337 15.4119 25.3033 15.0543 24.3903 15.0543C23.4718 15.0543 22.6414 15.3967 22.0339 15.964C21.8252 16.1597 21.5002 16.1597 21.2904 15.964C20.6774 15.3912 19.8459 15.0325 18.934 15.0325C18.0297 15.0325 17.2221 15.3945 16.6037 15.976C16.395 16.1716 16.0689 16.1716 15.8602 15.976C15.2472 15.4021 14.4168 15.0445 13.5038 15.0445C12.5941 15.0445 11.7952 15.3912 11.1822 15.9651C10.9735 16.1608 10.6485 16.1608 10.4387 15.9651C9.82569 15.3923 8.9942 15.0336 8.08229 15.0336C7.17798 15.0336 6.3704 15.3956 5.75195 15.9771C5.54326 16.1727 5.21719 16.1727 5.0085 15.9771C4.39983 15.4086 3.57813 15.0521 2.67382 15.0467V46.5671H29.4118C29.6825 47.3333 30.0335 48.0616 30.452 48.7409H3.04554C1.63908 48.7376 0.5 47.5985 0.5 46.1943ZM11.3691 40.5858V37.3262C11.3691 37.0273 11.6126 36.7827 11.9126 36.7827H15.1744C15.4733 36.7827 15.7178 37.0273 15.7178 37.3262V40.5858C15.7178 40.8858 15.4733 41.1293 15.1744 41.1293H11.9126C11.6126 41.1293 11.3691 40.8858 11.3691 40.5858ZM22.2382 40.5858V37.3262C22.2382 37.0273 22.4817 36.7827 22.7817 36.7827H26.0435C26.3424 36.7827 26.5869 37.0273 26.5869 37.3262V40.5858C26.5869 40.8858 26.3424 41.1293 26.0435 41.1293H22.7817C22.4817 41.1293 22.2382 40.8858 22.2382 40.5858ZM5.93455 40.5847V37.3251C5.93455 37.0262 6.17802 36.7816 6.47801 36.7816H9.73982C10.0387 36.7816 10.2833 37.0262 10.2833 37.3251V40.5847C10.2833 40.8847 10.0387 41.1282 9.73982 41.1282H6.47801C6.17802 41.1282 5.93455 40.8847 5.93455 40.5847ZM16.8037 40.5847V37.3251C16.8037 37.0262 17.0471 36.7816 17.3471 36.7816H20.6089C20.9078 36.7816 21.1524 37.0262 21.1524 37.3251V40.5847C21.1524 40.8847 20.9078 41.1282 20.6089 41.1282H17.3471C17.0471 41.1282 16.8037 40.8847 16.8037 40.5847ZM14.632 40.0423V37.8696H12.4571V40.0423H14.632ZM25.5011 40.0423V37.8696H23.3262V40.0423H25.5011ZM9.19746 40.0413V37.8685H7.02146V40.0413H9.19746ZM20.0666 40.0413V37.8685H17.8917V40.0413H20.0666ZM11.3713 35.1512V31.8916C11.3713 31.5927 11.6147 31.3482 11.9147 31.3482H15.1765C15.4754 31.3482 15.72 31.5927 15.72 31.8916V35.1512C15.72 35.4512 15.4754 35.6947 15.1765 35.6947H11.9147C11.6147 35.6947 11.3713 35.4512 11.3713 35.1512ZM22.2404 35.1512V31.8916C22.2404 31.5927 22.4838 31.3482 22.7838 31.3482H26.0457C26.3446 31.3482 26.5891 31.5927 26.5891 31.8916V35.1512C26.5891 35.4512 26.3446 35.6947 26.0457 35.6947H22.7838C22.4838 35.6947 22.2404 35.4512 22.2404 35.1512ZM5.93673 35.1502V31.8905C5.93673 31.5916 6.18019 31.3471 6.48018 31.3471H9.742C10.0409 31.3471 10.2855 31.5916 10.2855 31.8905V35.1502C10.2855 35.4501 10.0409 35.6936 9.742 35.6936H6.48018C6.18019 35.6936 5.93673 35.4501 5.93673 35.1502ZM16.8058 35.1502V31.8905C16.8058 31.5916 17.0493 31.3471 17.3493 31.3471H20.6111C20.91 31.3471 21.1546 31.5916 21.1546 31.8905V35.1502C21.1546 35.4501 20.91 35.6936 20.6111 35.6936H17.3493C17.0493 35.6936 16.8058 35.4501 16.8058 35.1502ZM27.6749 35.1502V31.8905C27.6749 31.5916 27.9184 31.3471 28.2184 31.3471H31.4802C31.7791 31.3471 32.0237 31.5916 32.0237 31.8905L32.0226 34.7741C31.7367 35.0654 31.4672 35.373 31.2139 35.6925H28.2184C27.9184 35.6936 27.6749 35.4501 27.6749 35.1502ZM14.6331 34.6078V32.4351H12.4582V34.6078H14.6331ZM25.5022 34.6078V32.4351H23.3273V34.6078H25.5022ZM9.19854 34.6067V32.434H7.02364V34.6067H9.19854ZM20.0676 34.6067V32.434H17.8927V34.6067H20.0676ZM30.9367 34.6067V32.434H28.7618V34.6067H30.9367ZM33.1073 33.7991L33.1084 31.8916C33.1084 31.5927 33.3519 31.3482 33.6519 31.3482H36.9148C37.1397 31.3482 37.3332 31.4873 37.4158 31.6829C36.6811 31.8655 35.9757 32.1188 35.3061 32.4351H34.1964L34.1953 33.0383C33.8181 33.272 33.4551 33.5252 33.1073 33.7991ZM11.3713 29.7167V26.4571C11.3713 26.1582 11.6147 25.9136 11.9147 25.9136H15.1765C15.4754 25.9136 15.72 26.1582 15.72 26.4571V29.7167C15.72 30.0167 15.4754 30.2602 15.1765 30.2602H11.9147C11.6147 30.2602 11.3713 30.0167 11.3713 29.7167ZM22.2404 29.7167V26.4571C22.2404 26.1582 22.4838 25.9136 22.7838 25.9136H26.0457C26.3446 25.9136 26.5891 26.1582 26.5891 26.4571V29.7167C26.5891 30.0167 26.3446 30.2602 26.0457 30.2602H22.7838C22.4838 30.2602 22.2404 30.0167 22.2404 29.7167ZM33.1095 29.7167V26.4571C33.1095 26.1582 33.353 25.9136 33.6529 25.9136H36.9148C37.2137 25.9136 37.4582 26.1582 37.4582 26.4571V29.7167C37.4582 30.0167 37.2137 30.2602 36.9148 30.2602H33.6529C33.353 30.2602 33.1095 30.0167 33.1095 29.7167ZM5.93673 29.7156V26.456C5.93673 26.1571 6.18019 25.9125 6.48018 25.9125H9.742C10.0409 25.9125 10.2855 26.1571 10.2855 26.456V29.7156C10.2855 30.0156 10.0409 30.2591 9.742 30.2591H6.48018C6.18019 30.2591 5.93673 30.0156 5.93673 29.7156ZM16.8058 29.7156V26.456C16.8058 26.1571 17.0493 25.9125 17.3493 25.9125H20.6111C20.91 25.9125 21.1546 26.1571 21.1546 26.456V29.7156C21.1546 30.0156 20.91 30.2591 20.6111 30.2591H17.3493C17.0493 30.2591 16.8058 30.0156 16.8058 29.7156ZM27.6749 29.7156V26.456C27.6749 26.1571 27.9184 25.9125 28.2184 25.9125H31.4802C31.7791 25.9125 32.0237 26.1571 32.0237 26.456V29.7156C32.0237 30.0156 31.7791 30.2591 31.4802 30.2591H28.2184C27.9184 30.2591 27.6749 30.0156 27.6749 29.7156ZM14.6331 29.1732V27.0005H12.4582V29.1732H14.6331ZM25.5022 29.1732V27.0005H23.3273V29.1732H25.5022ZM36.3713 29.1732V27.0005H34.1964V29.1732H36.3713ZM9.19854 29.1722V26.9994H7.02364V29.1722H9.19854ZM20.0676 29.1722V26.9994H17.8927V29.1722H20.0676ZM30.9367 29.1722V26.9994H28.7618V29.1722H30.9367ZM11.3713 24.2821V21.0225C11.3713 20.7236 11.6147 20.479 11.9147 20.479H15.1765C15.4754 20.479 15.72 20.7236 15.72 21.0225V24.2821C15.72 24.5821 15.4754 24.8256 15.1765 24.8256H11.9147C11.6147 24.8256 11.3713 24.5821 11.3713 24.2821ZM22.2404 24.2821V21.0225C22.2404 20.7236 22.4838 20.479 22.7838 20.479H26.0457C26.3446 20.479 26.5891 20.7236 26.5891 21.0225V24.2821C26.5891 24.5821 26.3446 24.8256 26.0457 24.8256H22.7838C22.4838 24.8256 22.2404 24.5821 22.2404 24.2821ZM33.1095 24.2821V21.0225C33.1095 20.7236 33.353 20.479 33.6529 20.479H36.9148C37.2137 20.479 37.4582 20.7236 37.4582 21.0225V24.2821C37.4582 24.5821 37.2137 24.8256 36.9148 24.8256H33.6529C33.353 24.8256 33.1095 24.5821 33.1095 24.2821ZM16.8058 24.2811V21.0214C16.8058 20.7225 17.0493 20.478 17.3493 20.478H20.6111C20.91 20.478 21.1546 20.7225 21.1546 21.0214V24.2811C21.1546 24.581 20.91 24.8245 20.6111 24.8245H17.3493C17.0493 24.8245 16.8058 24.581 16.8058 24.2811ZM27.6749 24.2811V21.0214C27.6749 20.7225 27.9184 20.478 28.2184 20.478H31.4802C31.7791 20.478 32.0237 20.7225 32.0237 21.0214V24.2811C32.0237 24.581 31.7791 24.8245 31.4802 24.8245H28.2184C27.9184 24.8245 27.6749 24.581 27.6749 24.2811ZM14.6331 23.7387V21.566H12.4582V23.7387H14.6331ZM25.5022 23.7387V21.566H23.3273V23.7387H25.5022ZM36.3713 23.7387V21.566H34.1964V23.7387H36.3713ZM20.0676 23.7376V21.5649H17.8927V23.7376H20.0676ZM30.9367 23.7376V21.5649H28.7618V23.7376H30.9367ZM27.1141 14.8825L27.3923 14.6826C28.0869 14.2271 28.9129 13.9532 29.8194 13.9532C30.7194 13.9532 31.5595 14.2195 32.2584 14.6663L32.5486 14.8706L32.8312 14.6706C33.5355 14.2195 34.3757 13.9543 35.2757 13.9543C36.1757 13.9543 37.0158 14.2206 37.7191 14.6717L38.0006 14.8717L38.2788 14.6717C38.9734 14.2163 39.7994 13.9424 40.7059 13.9445L40.7146 12.8707H2.67273V13.9565L3.09554 13.9782C3.82703 14.0489 4.50853 14.2967 5.09437 14.6728L5.37588 14.8728L5.65413 14.6728C6.34866 14.2174 7.17472 13.9435 8.0812 13.9435C8.98116 13.9435 9.82026 14.2097 10.5235 14.6608L10.8072 14.8608L11.0854 14.6641C11.78 14.2163 12.6017 13.9554 13.5027 13.9554C14.4027 13.9554 15.2429 14.2217 15.9461 14.6728L16.2276 14.8728L16.5058 14.6728C17.2004 14.2174 18.0264 13.9435 18.9329 13.9435C19.8329 13.9435 20.672 14.2097 21.3752 14.6608L21.6611 14.8619L21.948 14.6619C22.6534 14.2174 23.4947 13.9652 24.3903 13.9652C25.2902 13.9652 26.1304 14.2315 26.8337 14.6826L27.1141 14.8825Z" fill="#2266C4"/>
<path id="Vector_2" fill-rule="evenodd" clip-rule="evenodd" d="M29.8486 42.7596C29.8486 37.0599 34.4745 32.434 40.1743 32.434C45.874 32.434 50.4999 37.0599 50.4999 42.7596C50.4999 48.4594 45.874 53.0853 40.1743 53.0853C34.4745 53.0853 29.8486 48.4594 29.8486 42.7596ZM39.6287 50.894L39.6297 50.3625C39.6297 50.0636 39.8732 49.8191 40.1732 49.8191C40.4721 49.8191 40.7167 50.0636 40.7167 50.3625V50.894C41.8046 50.8234 42.8372 50.5365 43.7687 50.0767L43.5035 49.6158C43.3524 49.3561 43.4426 49.0235 43.7024 48.8735C43.9622 48.7224 44.2948 48.8126 44.4448 49.0724L44.71 49.5332C45.5925 48.9409 46.3523 48.1811 46.9446 47.2985L46.4849 47.0323C46.2251 46.8833 46.136 46.5497 46.286 46.2899C46.4349 46.0301 46.7686 45.941 47.0283 46.091L47.4892 46.3573C47.9489 45.4258 48.2359 44.3932 48.3065 43.302H47.7761C47.4761 43.302 47.2327 43.0585 47.2327 42.7585C47.2327 42.4596 47.4761 42.2151 47.7761 42.2151H48.3065C48.2359 41.1249 47.9489 40.0934 47.4892 39.163L47.0283 39.4282C46.7686 39.5793 46.436 39.4891 46.286 39.2293C46.1349 38.9696 46.2251 38.637 46.4849 38.487L46.9457 38.2218C46.3534 37.3392 45.5925 36.5783 44.71 35.986L44.4448 36.4468C44.2958 36.7066 43.9622 36.7957 43.7024 36.6457C43.4426 36.4968 43.3535 36.1632 43.5035 35.9034L43.7687 35.4425C42.8383 34.9828 41.8068 34.6958 40.7167 34.6252V35.1556C40.7167 35.4556 40.4721 35.699 40.1732 35.699C39.8732 35.699 39.6297 35.4556 39.6297 35.1556L39.6287 34.6252C38.5385 34.6958 37.507 34.9828 36.5755 35.4425L36.8418 35.9034C36.9929 36.1632 36.9027 36.4957 36.6429 36.6457C36.3831 36.7968 36.0505 36.7066 35.9006 36.4468L35.6343 35.9871C34.7517 36.5794 33.9919 37.3392 33.3996 38.2218L33.8604 38.487C34.1202 38.6359 34.2093 38.9696 34.0593 39.2293C33.9104 39.4891 33.5767 39.5782 33.317 39.4282L32.8561 39.163C32.3964 40.0945 32.1094 41.1271 32.0388 42.2151H32.5703C32.8692 42.2151 33.1137 42.4596 33.1137 42.7585C33.1137 43.0585 32.8692 43.302 32.5703 43.302H32.0388C32.1094 44.3932 32.3964 45.4247 32.8561 46.3573L33.317 46.091C33.5767 45.9399 33.9093 46.0301 34.0593 46.2899C34.2104 46.5497 34.1202 46.8823 33.8604 47.0323L33.4007 47.2975C33.9919 48.18 34.7528 48.9409 35.6353 49.5321L35.9006 49.0724C36.0495 48.8126 36.3831 48.7235 36.6429 48.8735C36.9027 49.0224 36.9918 49.3561 36.8418 49.6158L36.5755 50.0767C37.507 50.5365 38.5396 50.8234 39.6287 50.894ZM41.5829 46.829L40.171 44.3889C39.2743 44.3878 38.5461 43.6585 38.5461 42.7596C38.5461 42.0542 38.9982 41.4499 39.6287 41.2249L39.6297 37.3251C39.6297 37.0262 39.8732 36.7816 40.1732 36.7816C40.4721 36.7816 40.7167 37.0262 40.7167 37.3251V41.2249C41.3481 41.4477 41.8036 42.052 41.8036 42.7596C41.8036 43.0585 41.722 43.3368 41.5829 43.577L42.9916 46.0127C43.2176 46.4029 43.0839 46.9007 42.6948 47.1257C42.3057 47.3529 41.8068 47.2192 41.5829 46.829Z" fill="#2266C4"/>
<path id="Vector_3" fill-rule="evenodd" clip-rule="evenodd" d="M21.1533 53.0853C16.6317 53.0853 4.84961 52.8451 4.84961 52.5419C4.84961 52.2375 16.6317 51.9984 21.1533 51.9984L21.7402 52.5343L21.1533 53.0853Z" fill="#2266C4"/>
<path id="Vector_4" fill-rule="evenodd" clip-rule="evenodd" d="M40.7178 53.0853C43.4307 53.0853 50.5 52.8451 50.5 52.5419C50.5 52.2375 43.4307 51.9984 40.7178 51.9984V53.0853Z" fill="#2266C4"/>
<path id="Vector_5" fill-rule="evenodd" clip-rule="evenodd" d="M21.1533 51.9984V53.0864H40.7188L41.4101 52.5006L40.7188 51.9984H21.1533Z" fill="#2266C4"/>
</g>
</svg>
