<svg width="50" height="50" viewBox="0 0 50 50" fill="none" xmlns="http://www.w3.org/2000/svg">
<g id="icons8-graduation 1">
<path id="Vector" d="M41 3C38.96 6.94 36.3406 10.9006 32.6406 15.3906L32.6309 15.4004C34.8309 17.6304 36.4595 20.6003 37.2695 24.0703C39.7995 21.4003 42.4107 18.8605 44.9707 16.7305C45.0907 16.6405 45.1802 16.5209 45.2402 16.3809C45.7502 15.2909 46 14.0808 46 12.8008C46 8.78078 43.94 5.29 41 3ZM33.1172 3.10156C32.3396 3.10209 31.8001 3.19578 31.7363 3.20703C31.4463 3.25703 31.1966 3.42773 31.0566 3.67773C29.5466 6.25773 27.6297 8.74914 25.4297 11.3691C27.5297 11.8391 29.4609 12.7703 31.1309 14.0703C33.8809 10.7303 36.0865 7.71727 37.8965 4.69727C36.3715 3.35977 34.4132 3.10068 33.1172 3.10156ZM23.9199 13.1191C22.2799 14.9791 20.5804 16.7807 18.9004 18.4707C24.7104 20.0007 29.1095 25.0594 30.4395 31.8594L35.5996 25.9004C34.4896 18.8604 29.9699 13.9191 23.9199 13.1191ZM17.1992 20.1504C11.9692 25.2704 7.45086 28.9995 7.13086 29.2695C6.71086 29.5795 6.30945 29.9298 5.93945 30.3398C5.35945 30.9598 4.84969 31.6692 4.42969 32.4492C5.71969 31.5392 7.3 31 9 31C13.45 31 16 33.55 16 38C16 41.42 13.85 44 11 44C8.37 44 7 41.48 7 39V38.5898L9.28906 36.2891C9.67906 35.8991 10.3209 35.8991 10.7109 36.2891C11.1009 36.6791 11.1009 37.3209 10.7109 37.7109L9.01953 39.4004C9.10953 40.4704 9.6 42 11 42C12.74 42 14 40.32 14 38C14 34.68 12.32 33 9 33C5.7 33 3.02 35.6707 3 38.9707V39C3.38 44.08 7.70937 47.8809 13.1094 47.8809C13.1394 47.8809 13.1692 47.8691 13.1992 47.8691C14.1292 47.8591 15.0196 47.7493 15.8496 47.5293C19.4196 46.3393 22 42.96 22 39C22 35.48 19.9309 32.2608 16.7109 30.8008C16.4009 30.6608 16.1906 30.3693 16.1406 30.0293C16.0906 29.6893 16.2207 29.3509 16.4707 29.1309C16.7807 28.8709 18.1409 27.6306 22.9609 22.6406C21.3009 21.3506 19.3492 20.4904 17.1992 20.1504ZM24.4395 23.9805C21.9895 26.5205 20.0401 28.4999 18.8301 29.6699C22.0101 31.6599 24 35.18 24 39C24 39.34 23.9792 39.6698 23.9492 40.0098C25.2492 38.2898 26.8805 36.1806 28.7305 33.8906C28.2905 29.8406 26.7495 26.4205 24.4395 23.9805ZM37.373 27C35.633 28.889 33.832 30.9496 32 33.1406L38.7988 39V33.7637L44 32.7188L37.373 27Z" fill="#2266C4"/>
<path id="Vector_2" d="M24.0195 12.5C22.3795 14.36 20.68 16.1616 19 17.8516C24.81 19.3816 29.2091 24.4402 30.5391 31.2402L35.6992 25.2812C34.5892 18.2413 30.0695 13.3 24.0195 12.5ZM37.4727 26.3809C35.7327 28.2699 33.9316 30.3305 32.0996 32.5215L38.8984 38.3809V33.1445L44.0996 32.0996L37.4727 26.3809Z" fill="#2266C4"/>
</g>
</svg>
