<svg width="51" height="51" viewBox="0 0 51 51" fill="none" xmlns="http://www.w3.org/2000/svg">
<g id="icons8-teacher 1">
<path id="Vector" d="M46.3333 5.70831H9.875V33.8333H46.3333V5.70831Z" fill="#DD7C12"/>
<path id="Vector_2" d="M44.2499 7.79169H11.9583V32.7917H44.2499V7.79169Z" fill="#009688"/>
<path id="Vector_3" d="M48.4167 36.9584V34.875C48.4167 33.7292 47.4792 32.7917 46.3334 32.7917H9.87508C8.72925 32.7917 7.79175 33.7292 7.79175 34.875V36.9584H48.4167Z" fill="#773D04"/>
<path id="Vector_4" d="M10.9166 20.2917C7.99992 20.2917 5.70825 18 5.70825 15.0833C5.70825 12.1667 8.10409 9.875 10.9166 9.875C13.8333 9.875 16.1249 12.1667 16.1249 15.0833C16.1249 18 13.7291 20.2917 10.9166 20.2917Z" fill="#FFB74D"/>
<path id="Vector_5" d="M5.70825 43.2083L2.58325 41.125V36.9583H5.70825V43.2083Z" fill="#FFB74D"/>
<path id="Vector_6" d="M29.6666 21.4636V25.2136L26.151 27.8438L24.4583 25.2396L29.6666 21.4636Z" fill="#FFB74D"/>
<path id="Vector_7" d="M26.0947 23.4271L22.3739 26.1416C22.3739 26.1416 16.1051 22.4854 15.6041 22.2094C15.1812 21.9771 14.7749 21.7844 14.3937 21.6802C14.2312 21.6354 14.0572 21.5916 13.8749 21.551C13.302 21.426 12.6249 21.3323 11.927 21.3323H10.8853C9.802 21.3323 8.84367 21.4364 8.01033 21.6239C3.71867 22.5833 2.58325 25.8333 2.58325 29.6667V38L5.70825 40.0833V45.2917H16.1249L17.1666 31.3594V27.9406L21.4614 30.4271C21.7853 30.6156 22.1458 30.7083 22.5051 30.7083C22.9374 30.7083 23.3687 30.5739 23.7333 30.3073L28.551 26.7916L26.0947 23.4271Z" fill="#455A64"/>
<path id="Vector_8" d="M13.8751 21.5521L10.9376 25.5L8.0105 21.625C8.84383 21.4375 9.80216 21.3333 10.8855 21.3333H11.9272C12.6251 21.3333 13.3022 21.4271 13.8751 21.5521Z" fill="#E3F2FD"/>
<path id="Vector_9" d="M32.7917 10.9167H19.25V13H32.7917V10.9167Z" fill="white"/>
<path id="Vector_10" d="M41.125 16.125H19.25V18.2083H41.125V16.125Z" fill="white"/>
<path id="Vector_11" d="M41.125 10.9167H34.875V13H41.125V10.9167Z" fill="white"/>
</g>
</svg>
