<svg width="51" height="51" viewBox="0 0 51 51" fill="none" xmlns="http://www.w3.org/2000/svg">
<g id="icons8-family 1">
<path id="Vector" d="M30.7083 13.9375H41.1249V25.6042H30.7083V13.9375Z" fill="#BF360C"/>
<path id="Vector_2" d="M46.3333 32.7917V45.2917H25.5V32.7917C25.5 25.6042 32.6875 24.3542 32.6875 24.3542H39.25C39.1458 24.3542 46.3333 25.6042 46.3333 32.7917Z" fill="#3F51B5"/>
<path id="Vector_3" d="M35.9167 27.8958C33.4167 27.8958 32.7917 24.4583 32.7917 24.4583V20.3958H39.0417V24.4583C39.0417 24.4583 38.4167 27.8958 35.9167 27.8958Z" fill="#FF9800"/>
<path id="Vector_4" d="M42.1667 12.2709C42.1667 6.95835 29.6667 8.83335 29.6667 12.2709C29.6667 13 29.6667 16.4375 29.6667 17.1667C29.6667 20.6042 32.4792 23.4167 35.9167 23.4167C39.3542 23.4167 42.1667 20.6042 42.1667 17.1667C42.1667 16.4375 42.1667 13 42.1667 12.2709Z" fill="#FFCE87"/>
<path id="Vector_5" d="M35.9167 5.70831C31.9584 5.70831 26.5417 8.52081 26.5417 23.4166L30.7084 24.9791V16.125L38.0001 11.9583L41.1251 15.0833V24.9791L45.2917 22.375C45.2917 16.8541 45.0834 6.74998 38.4167 6.74998L37.7917 5.70831H35.9167Z" fill="#FF5722"/>
<path id="Vector_6" d="M35.9167 28.625C33.1042 28.625 32.7917 24.4583 32.7917 24.4583C32.7917 24.4583 33.7292 27.5833 35.9167 27.5833C38.1042 27.5833 39.0417 24.4583 39.0417 24.4583C39.0417 24.4583 38.7292 28.625 35.9167 28.625Z" fill="#FFCE87"/>
<path id="Vector_7" d="M15.0834 28.2083C11.75 28.2083 11.9584 24.4583 11.9584 24.4583V20.7083H18.2084V24.4583C18.2084 24.4583 18.4167 28.2083 15.0834 28.2083Z" fill="#FF9800"/>
<path id="Vector_8" d="M20.8126 15.0833C20.3982 15.0833 20.0008 15.2479 19.7077 15.541C19.4147 15.834 19.2501 16.2314 19.2501 16.6458C19.2501 17.0602 19.4147 17.4576 19.7077 17.7507C20.0008 18.0437 20.3982 18.2083 20.8126 18.2083C21.227 18.2083 21.6244 18.0437 21.9174 17.7507C22.2105 17.4576 22.3751 17.0602 22.3751 16.6458C22.3751 16.2314 22.2105 15.834 21.9174 15.541C21.6244 15.2479 21.227 15.0833 20.8126 15.0833ZM9.35425 15.0833C8.93985 15.0833 8.54242 15.2479 8.24939 15.541C7.95637 15.834 7.79175 16.2314 7.79175 16.6458C7.79175 17.0602 7.95637 17.4576 8.24939 17.7507C8.54242 18.0437 8.93985 18.2083 9.35425 18.2083C9.76865 18.2083 10.1661 18.0437 10.4591 17.7507C10.7521 17.4576 10.9167 17.0602 10.9167 16.6458C10.9167 16.2314 10.7521 15.834 10.4591 15.541C10.1661 15.2479 9.76865 15.0833 9.35425 15.0833Z" fill="#FFA726"/>
<path id="Vector_9" d="M21.3333 12.2709C21.3333 6.95835 8.83325 8.83335 8.83325 12.2709C8.83325 13 8.83325 16.4375 8.83325 17.1667C8.83325 20.6042 11.6458 23.4167 15.0833 23.4167C18.5208 23.4167 21.3333 20.6042 21.3333 17.1667C21.3333 16.4375 21.3333 13 21.3333 12.2709Z" fill="#FFCE87"/>
<path id="Vector_10" d="M15.0834 5.70831C10.6042 5.70831 7.79175 9.24998 7.79175 13.7291C7.79175 14.3541 7.79175 16.125 7.79175 16.125L9.25008 16.6458V13L18.0001 10.0833L20.9167 13V16.6458L22.3751 16.125C22.3751 16.125 22.3751 14.3541 22.3751 13.7291C22.3751 10.8125 21.6459 7.89581 18.0001 7.16665L17.2709 5.70831H15.0834Z" fill="#424242"/>
<path id="Vector_11" d="M18.2084 24.3542C18.2084 24.3542 17.7917 26.5417 15.0834 26.5417C12.3751 26.5417 11.9584 24.3542 11.9584 24.3542C11.9584 24.3542 4.66675 25.6042 4.66675 32.7917V45.2917H25.5001V32.7917C25.5001 25.6042 18.2084 24.3542 18.2084 24.3542Z" fill="#009688"/>
<path id="Vector_12" d="M25.4999 42.1667C23.2082 42.1667 23.4166 40.0834 23.4166 40.0834V37.1667H27.5832V40.0834C27.5832 40.0834 27.7916 42.1667 25.4999 42.1667Z" fill="#FF9800"/>
<path id="Vector_13" d="M29.6667 32.8958C29.3905 32.8958 29.1255 33.0056 28.9302 33.2009C28.7348 33.3963 28.6251 33.6612 28.6251 33.9375C28.6251 34.2137 28.7348 34.4787 28.9302 34.674C29.1255 34.8694 29.3905 34.9791 29.6667 34.9791C29.943 34.9791 30.208 34.8694 30.4033 34.674C30.5987 34.4787 30.7084 34.2137 30.7084 33.9375C30.7084 33.6612 30.5987 33.3963 30.4033 33.2009C30.208 33.0056 29.943 32.8958 29.6667 32.8958ZM21.3334 32.8958C21.0571 32.8958 20.7922 33.0056 20.5968 33.2009C20.4015 33.3963 20.2917 33.6612 20.2917 33.9375C20.2917 34.2137 20.4015 34.4787 20.5968 34.674C20.7922 34.8694 21.0571 34.9791 21.3334 34.9791C21.6097 34.9791 21.8746 34.8694 22.07 34.674C22.2653 34.4787 22.3751 34.2137 22.3751 33.9375C22.3751 33.6612 22.2653 33.3963 22.07 33.2009C21.8746 33.0056 21.6097 32.8958 21.3334 32.8958Z" fill="#FFA726"/>
<path id="Vector_14" d="M29.6666 31.75C29.6666 28.2084 21.3333 29.4584 21.3333 31.75C21.3333 32.2709 21.3333 34.4584 21.3333 34.9792C21.3333 37.2709 23.2083 39.1459 25.4999 39.1459C27.7916 39.1459 29.6666 37.2709 29.6666 34.9792C29.6666 34.4584 29.6666 32.1667 29.6666 31.75Z" fill="#FFCE87"/>
<path id="Vector_15" d="M25.5001 26.6458C22.3751 26.6458 20.2917 29.25 20.2917 32.375C20.2917 32.7916 20.2917 34.0416 20.2917 34.0416L21.3334 34.4583V31.8541L27.5834 29.7708L29.6667 31.8541V34.4583L30.7084 34.0416C30.7084 34.0416 30.7084 32.7916 30.7084 32.375C30.7084 30.2916 30.1876 28.2083 27.5834 27.6875L27.0626 26.6458H25.5001Z" fill="#FF5722"/>
<g id="Group">
<path id="Vector_16" d="M27.5833 39.3542C27.5833 39.3542 27.2708 41.125 25.4999 41.125C23.7291 41.125 23.4166 39.3542 23.4166 39.3542C23.4166 39.3542 18.2083 40.2917 18.2083 45.2917H32.7916C32.7916 40.2917 27.5833 39.3542 27.5833 39.3542Z" fill="#00BCD4"/>
</g>
</g>
</svg>
