<svg width="51" height="50" viewBox="0 0 51 50" fill="none" xmlns="http://www.w3.org/2000/svg">
<g id="icons8-planner 1" clip-path="url(#clip0_164_2044)">
<path id="Vector" d="M14.0333 -0.5C13.2495 -0.5 12.6 0.169231 12.6 0.976923V3.19231H7.58333C5.6125 3.19231 4 4.85385 4 6.88462V43.8077C4 45.8385 5.6125 47.5 7.58333 47.5H43.4167C45.3875 47.5 47 45.8385 47 43.8077V6.88462C47 4.85385 45.3875 3.19231 43.4167 3.19231H38.4V0.976923C38.4 0.169231 37.7505 -0.5 36.9667 -0.5H35.5333C34.7495 -0.5 34.1 0.169231 34.1 0.976923V3.19231H16.9V0.976923C16.9 0.169231 16.2505 -0.5 15.4667 -0.5H14.0333ZM14.0333 0.976923H15.4667V6.88462H14.0333V0.976923ZM35.5333 0.976923H36.9667V6.88462H35.5333V0.976923ZM7.58333 4.66923H12.6V6.88462C12.6 7.69231 13.2495 8.36154 14.0333 8.36154H15.4667C16.2505 8.36154 16.9 7.69231 16.9 6.88462V4.66923H34.1V6.88462C34.1 7.69231 34.7495 8.36154 35.5333 8.36154H36.9667C37.7505 8.36154 38.4 7.69231 38.4 6.88462V4.66923H43.4167C44.612 4.66923 45.5667 5.65288 45.5667 6.88462V12.0538H5.43333V6.88462C5.43333 5.65288 6.38796 4.66923 7.58333 4.66923ZM5.43333 13.5308H45.5667V43.8077C45.5667 45.0394 44.612 46.0231 43.4167 46.0231H7.58333C6.38796 46.0231 5.43333 45.0394 5.43333 43.8077V13.5308ZM14.0333 19.4385C13.6386 19.4385 13.3167 19.7702 13.3167 20.1769C13.3167 20.5837 13.6386 20.9154 14.0333 20.9154C14.4281 20.9154 14.75 20.5837 14.75 20.1769C14.75 19.7702 14.4281 19.4385 14.0333 19.4385ZM16.9 19.4385C16.5053 19.4385 16.1833 19.7702 16.1833 20.1769C16.1833 20.5837 16.5053 20.9154 16.9 20.9154C17.2947 20.9154 17.6167 20.5837 17.6167 20.1769C17.6167 19.7702 17.2947 19.4385 16.9 19.4385ZM19.7667 19.4385C19.3719 19.4385 19.05 19.7702 19.05 20.1769C19.05 20.5837 19.3719 20.9154 19.7667 20.9154C20.1614 20.9154 20.4833 20.5837 20.4833 20.1769C20.4833 19.7702 20.1614 19.4385 19.7667 19.4385ZM22.6333 19.4385C22.2386 19.4385 21.9167 19.7702 21.9167 20.1769C21.9167 20.5837 22.2386 20.9154 22.6333 20.9154C23.0281 20.9154 23.35 20.5837 23.35 20.1769C23.35 19.7702 23.0281 19.4385 22.6333 19.4385ZM25.5 19.4385C25.1053 19.4385 24.7833 19.7702 24.7833 20.1769C24.7833 20.5837 25.1053 20.9154 25.5 20.9154C25.8947 20.9154 26.2167 20.5837 26.2167 20.1769C26.2167 19.7702 25.8947 19.4385 25.5 19.4385ZM28.3667 19.4385C27.9719 19.4385 27.65 19.7702 27.65 20.1769C27.65 20.5837 27.9719 20.9154 28.3667 20.9154C28.7614 20.9154 29.0833 20.5837 29.0833 20.1769C29.0833 19.7702 28.7614 19.4385 28.3667 19.4385ZM31.2333 19.4385C30.8386 19.4385 30.5167 19.7702 30.5167 20.1769C30.5167 20.5837 30.8386 20.9154 31.2333 20.9154C31.6281 20.9154 31.95 20.5837 31.95 20.1769C31.95 19.7702 31.6281 19.4385 31.2333 19.4385ZM34.1 19.4385C33.7053 19.4385 33.3833 19.7702 33.3833 20.1769C33.3833 20.5837 33.7053 20.9154 34.1 20.9154C34.4947 20.9154 34.8167 20.5837 34.8167 20.1769C34.8167 19.7702 34.4947 19.4385 34.1 19.4385ZM36.9667 19.4385C36.5719 19.4385 36.25 19.7702 36.25 20.1769C36.25 20.5837 36.5719 20.9154 36.9667 20.9154C37.3614 20.9154 37.6833 20.5837 37.6833 20.1769C37.6833 19.7702 37.3614 19.4385 36.9667 19.4385ZM14.0333 22.3923C13.6386 22.3923 13.3167 22.724 13.3167 23.1308C13.3167 23.5375 13.6386 23.8692 14.0333 23.8692C14.4281 23.8692 14.75 23.5375 14.75 23.1308C14.75 22.724 14.4281 22.3923 14.0333 22.3923ZM19.7667 22.3923C19.3719 22.3923 19.05 22.724 19.05 23.1308C19.05 23.5375 19.3719 23.8692 19.7667 23.8692C20.1614 23.8692 20.4833 23.5375 20.4833 23.1308C20.4833 22.724 20.1614 22.3923 19.7667 22.3923ZM25.5 22.3923C25.1053 22.3923 24.7833 22.724 24.7833 23.1308C24.7833 23.5375 25.1053 23.8692 25.5 23.8692C25.8947 23.8692 26.2167 23.5375 26.2167 23.1308C26.2167 22.724 25.8947 22.3923 25.5 22.3923ZM31.2333 22.3923C30.8386 22.3923 30.5167 22.724 30.5167 23.1308C30.5167 23.5375 30.8386 23.8692 31.2333 23.8692C31.6281 23.8692 31.95 23.5375 31.95 23.1308C31.95 22.724 31.6281 22.3923 31.2333 22.3923ZM36.9667 22.3923C36.5719 22.3923 36.25 22.724 36.25 23.1308C36.25 23.5375 36.5719 23.8692 36.9667 23.8692C37.3614 23.8692 37.6833 23.5375 37.6833 23.1308C37.6833 22.724 37.3614 22.3923 36.9667 22.3923ZM14.0333 25.3462C13.6386 25.3462 13.3167 25.6779 13.3167 26.0846C13.3167 26.4913 13.6386 26.8231 14.0333 26.8231C14.4281 26.8231 14.75 26.4913 14.75 26.0846C14.75 25.6779 14.4281 25.3462 14.0333 25.3462ZM16.9 25.3462C16.5053 25.3462 16.1833 25.6779 16.1833 26.0846C16.1833 26.4913 16.5053 26.8231 16.9 26.8231C17.2947 26.8231 17.6167 26.4913 17.6167 26.0846C17.6167 25.6779 17.2947 25.3462 16.9 25.3462ZM19.7667 25.3462C19.3719 25.3462 19.05 25.6779 19.05 26.0846C19.05 26.4913 19.3719 26.8231 19.7667 26.8231C20.1614 26.8231 20.4833 26.4913 20.4833 26.0846C20.4833 25.6779 20.1614 25.3462 19.7667 25.3462ZM22.6333 25.3462C22.2386 25.3462 21.9167 25.6779 21.9167 26.0846C21.9167 26.4913 22.2386 26.8231 22.6333 26.8231C23.0281 26.8231 23.35 26.4913 23.35 26.0846C23.35 25.6779 23.0281 25.3462 22.6333 25.3462ZM25.5 25.3462C25.1053 25.3462 24.7833 25.6779 24.7833 26.0846C24.7833 26.4913 25.1053 26.8231 25.5 26.8231C25.8947 26.8231 26.2167 26.4913 26.2167 26.0846C26.2167 25.6779 25.8947 25.3462 25.5 25.3462ZM28.3667 25.3462C27.9719 25.3462 27.65 25.6779 27.65 26.0846C27.65 26.4913 27.9719 26.8231 28.3667 26.8231C28.7614 26.8231 29.0833 26.4913 29.0833 26.0846C29.0833 25.6779 28.7614 25.3462 28.3667 25.3462ZM31.2333 25.3462C30.8386 25.3462 30.5167 25.6779 30.5167 26.0846C30.5167 26.4913 30.8386 26.8231 31.2333 26.8231C31.6281 26.8231 31.95 26.4913 31.95 26.0846C31.95 25.6779 31.6281 25.3462 31.2333 25.3462ZM34.1 25.3462C33.7053 25.3462 33.3833 25.6779 33.3833 26.0846C33.3833 26.4913 33.7053 26.8231 34.1 26.8231C34.4947 26.8231 34.8167 26.4913 34.8167 26.0846C34.8167 25.6779 34.4947 25.3462 34.1 25.3462ZM36.9667 25.3462C36.5719 25.3462 36.25 25.6779 36.25 26.0846C36.25 26.4913 36.5719 26.8231 36.9667 26.8231C37.3614 26.8231 37.6833 26.4913 37.6833 26.0846C37.6833 25.6779 37.3614 25.3462 36.9667 25.3462ZM14.0333 28.3C13.6386 28.3 13.3167 28.6317 13.3167 29.0385C13.3167 29.4452 13.6386 29.7769 14.0333 29.7769C14.4281 29.7769 14.75 29.4452 14.75 29.0385C14.75 28.6317 14.4281 28.3 14.0333 28.3ZM19.7667 28.3C19.3719 28.3 19.05 28.6317 19.05 29.0385C19.05 29.4452 19.3719 29.7769 19.7667 29.7769C20.1614 29.7769 20.4833 29.4452 20.4833 29.0385C20.4833 28.6317 20.1614 28.3 19.7667 28.3ZM25.5 28.3C25.1053 28.3 24.7833 28.6317 24.7833 29.0385C24.7833 29.4452 25.1053 29.7769 25.5 29.7769C25.8947 29.7769 26.2167 29.4452 26.2167 29.0385C26.2167 28.6317 25.8947 28.3 25.5 28.3ZM31.2333 28.3C30.8386 28.3 30.5167 28.6317 30.5167 29.0385C30.5167 29.4452 30.8386 29.7769 31.2333 29.7769C31.6281 29.7769 31.95 29.4452 31.95 29.0385C31.95 28.6317 31.6281 28.3 31.2333 28.3ZM36.9667 28.3C36.5719 28.3 36.25 28.6317 36.25 29.0385C36.25 29.4452 36.5719 29.7769 36.9667 29.7769C37.3614 29.7769 37.6833 29.4452 37.6833 29.0385C37.6833 28.6317 37.3614 28.3 36.9667 28.3ZM14.0333 31.2538C13.6386 31.2538 13.3167 31.5856 13.3167 31.9923C13.3167 32.399 13.6386 32.7308 14.0333 32.7308C14.4281 32.7308 14.75 32.399 14.75 31.9923C14.75 31.5856 14.4281 31.2538 14.0333 31.2538ZM16.9 31.2538C16.5053 31.2538 16.1833 31.5856 16.1833 31.9923C16.1833 32.399 16.5053 32.7308 16.9 32.7308C17.2947 32.7308 17.6167 32.399 17.6167 31.9923C17.6167 31.5856 17.2947 31.2538 16.9 31.2538ZM19.7667 31.2538C19.3719 31.2538 19.05 31.5856 19.05 31.9923C19.05 32.399 19.3719 32.7308 19.7667 32.7308C20.1614 32.7308 20.4833 32.399 20.4833 31.9923C20.4833 31.5856 20.1614 31.2538 19.7667 31.2538ZM22.6333 31.2538C22.2386 31.2538 21.9167 31.5856 21.9167 31.9923C21.9167 32.399 22.2386 32.7308 22.6333 32.7308C23.0281 32.7308 23.35 32.399 23.35 31.9923C23.35 31.5856 23.0281 31.2538 22.6333 31.2538ZM25.5 31.2538C25.1053 31.2538 24.7833 31.5856 24.7833 31.9923C24.7833 32.399 25.1053 32.7308 25.5 32.7308C25.8947 32.7308 26.2167 32.399 26.2167 31.9923C26.2167 31.5856 25.8947 31.2538 25.5 31.2538ZM28.3667 31.2538C27.9719 31.2538 27.65 31.5856 27.65 31.9923C27.65 32.399 27.9719 32.7308 28.3667 32.7308C28.7614 32.7308 29.0833 32.399 29.0833 31.9923C29.0833 31.5856 28.7614 31.2538 28.3667 31.2538ZM30.5167 31.2538V38.6385H37.6833V31.2538H30.5167ZM31.95 32.7308H36.25V37.1615H31.95V32.7308ZM14.0333 34.2077C13.6386 34.2077 13.3167 34.5394 13.3167 34.9462C13.3167 35.3529 13.6386 35.6846 14.0333 35.6846C14.4281 35.6846 14.75 35.3529 14.75 34.9462C14.75 34.5394 14.4281 34.2077 14.0333 34.2077ZM19.7667 34.2077C19.3719 34.2077 19.05 34.5394 19.05 34.9462C19.05 35.3529 19.3719 35.6846 19.7667 35.6846C20.1614 35.6846 20.4833 35.3529 20.4833 34.9462C20.4833 34.5394 20.1614 34.2077 19.7667 34.2077ZM25.5 34.2077C25.1053 34.2077 24.7833 34.5394 24.7833 34.9462C24.7833 35.3529 25.1053 35.6846 25.5 35.6846C25.8947 35.6846 26.2167 35.3529 26.2167 34.9462C26.2167 34.5394 25.8947 34.2077 25.5 34.2077ZM14.0333 37.1615C13.6386 37.1615 13.3167 37.4933 13.3167 37.9C13.3167 38.3067 13.6386 38.6385 14.0333 38.6385C14.4281 38.6385 14.75 38.3067 14.75 37.9C14.75 37.4933 14.4281 37.1615 14.0333 37.1615ZM16.9 37.1615C16.5053 37.1615 16.1833 37.4933 16.1833 37.9C16.1833 38.3067 16.5053 38.6385 16.9 38.6385C17.2947 38.6385 17.6167 38.3067 17.6167 37.9C17.6167 37.4933 17.2947 37.1615 16.9 37.1615ZM19.7667 37.1615C19.3719 37.1615 19.05 37.4933 19.05 37.9C19.05 38.3067 19.3719 38.6385 19.7667 38.6385C20.1614 38.6385 20.4833 38.3067 20.4833 37.9C20.4833 37.4933 20.1614 37.1615 19.7667 37.1615ZM22.6333 37.1615C22.2386 37.1615 21.9167 37.4933 21.9167 37.9C21.9167 38.3067 22.2386 38.6385 22.6333 38.6385C23.0281 38.6385 23.35 38.3067 23.35 37.9C23.35 37.4933 23.0281 37.1615 22.6333 37.1615ZM25.5 37.1615C25.1053 37.1615 24.7833 37.4933 24.7833 37.9C24.7833 38.3067 25.1053 38.6385 25.5 38.6385C25.8947 38.6385 26.2167 38.3067 26.2167 37.9C26.2167 37.4933 25.8947 37.1615 25.5 37.1615ZM28.3667 37.1615C27.9719 37.1615 27.65 37.4933 27.65 37.9C27.65 38.3067 27.9719 38.6385 28.3667 38.6385C28.7614 38.6385 29.0833 38.3067 29.0833 37.9C29.0833 37.4933 28.7614 37.1615 28.3667 37.1615Z" fill="#2266C4"/>
<path id="Vector_2" d="M14.0336 19.4385C13.6388 19.4385 13.3169 19.7702 13.3169 20.1769C13.3169 20.5837 13.6388 20.9154 14.0336 20.9154C14.4283 20.9154 14.7502 20.5837 14.7502 20.1769C14.7502 19.7702 14.4283 19.4385 14.0336 19.4385ZM16.9002 19.4385C16.5055 19.4385 16.1836 19.7702 16.1836 20.1769C16.1836 20.5837 16.5055 20.9154 16.9002 20.9154C17.295 20.9154 17.6169 20.5837 17.6169 20.1769C17.6169 19.7702 17.295 19.4385 16.9002 19.4385ZM19.7669 19.4385C19.3722 19.4385 19.0502 19.7702 19.0502 20.1769C19.0502 20.5837 19.3722 20.9154 19.7669 20.9154C20.1616 20.9154 20.4836 20.5837 20.4836 20.1769C20.4836 19.7702 20.1616 19.4385 19.7669 19.4385ZM22.6336 19.4385C22.2388 19.4385 21.9169 19.7702 21.9169 20.1769C21.9169 20.5837 22.2388 20.9154 22.6336 20.9154C23.0283 20.9154 23.3502 20.5837 23.3502 20.1769C23.3502 19.7702 23.0283 19.4385 22.6336 19.4385ZM25.5002 19.4385C25.1055 19.4385 24.7836 19.7702 24.7836 20.1769C24.7836 20.5837 25.1055 20.9154 25.5002 20.9154C25.895 20.9154 26.2169 20.5837 26.2169 20.1769C26.2169 19.7702 25.895 19.4385 25.5002 19.4385ZM28.3669 19.4385C27.9722 19.4385 27.6502 19.7702 27.6502 20.1769C27.6502 20.5837 27.9722 20.9154 28.3669 20.9154C28.7616 20.9154 29.0836 20.5837 29.0836 20.1769C29.0836 19.7702 28.7616 19.4385 28.3669 19.4385ZM31.2336 19.4385C30.8388 19.4385 30.5169 19.7702 30.5169 20.1769C30.5169 20.5837 30.8388 20.9154 31.2336 20.9154C31.6283 20.9154 31.9502 20.5837 31.9502 20.1769C31.9502 19.7702 31.6283 19.4385 31.2336 19.4385ZM34.1002 19.4385C33.7055 19.4385 33.3836 19.7702 33.3836 20.1769C33.3836 20.5837 33.7055 20.9154 34.1002 20.9154C34.495 20.9154 34.8169 20.5837 34.8169 20.1769C34.8169 19.7702 34.495 19.4385 34.1002 19.4385ZM36.9669 19.4385C36.5722 19.4385 36.2502 19.7702 36.2502 20.1769C36.2502 20.5837 36.5722 20.9154 36.9669 20.9154C37.3616 20.9154 37.6836 20.5837 37.6836 20.1769C37.6836 19.7702 37.3616 19.4385 36.9669 19.4385ZM14.0336 22.3923C13.6388 22.3923 13.3169 22.7241 13.3169 23.1308C13.3169 23.5375 13.6388 23.8692 14.0336 23.8692C14.4283 23.8692 14.7502 23.5375 14.7502 23.1308C14.7502 22.7241 14.4283 22.3923 14.0336 22.3923ZM19.7669 22.3923C19.3722 22.3923 19.0502 22.7241 19.0502 23.1308C19.0502 23.5375 19.3722 23.8692 19.7669 23.8692C20.1616 23.8692 20.4836 23.5375 20.4836 23.1308C20.4836 22.7241 20.1616 22.3923 19.7669 22.3923ZM25.5002 22.3923C25.1055 22.3923 24.7836 22.7241 24.7836 23.1308C24.7836 23.5375 25.1055 23.8692 25.5002 23.8692C25.895 23.8692 26.2169 23.5375 26.2169 23.1308C26.2169 22.7241 25.895 22.3923 25.5002 22.3923ZM31.2336 22.3923C30.8388 22.3923 30.5169 22.7241 30.5169 23.1308C30.5169 23.5375 30.8388 23.8692 31.2336 23.8692C31.6283 23.8692 31.9502 23.5375 31.9502 23.1308C31.9502 22.7241 31.6283 22.3923 31.2336 22.3923ZM36.9669 22.3923C36.5722 22.3923 36.2502 22.7241 36.2502 23.1308C36.2502 23.5375 36.5722 23.8692 36.9669 23.8692C37.3616 23.8692 37.6836 23.5375 37.6836 23.1308C37.6836 22.7241 37.3616 22.3923 36.9669 22.3923ZM14.0336 25.3462C13.6388 25.3462 13.3169 25.6779 13.3169 26.0846C13.3169 26.4914 13.6388 26.8231 14.0336 26.8231C14.4283 26.8231 14.7502 26.4914 14.7502 26.0846C14.7502 25.6779 14.4283 25.3462 14.0336 25.3462ZM16.9002 25.3462C16.5055 25.3462 16.1836 25.6779 16.1836 26.0846C16.1836 26.4914 16.5055 26.8231 16.9002 26.8231C17.295 26.8231 17.6169 26.4914 17.6169 26.0846C17.6169 25.6779 17.295 25.3462 16.9002 25.3462ZM19.7669 25.3462C19.3722 25.3462 19.0502 25.6779 19.0502 26.0846C19.0502 26.4914 19.3722 26.8231 19.7669 26.8231C20.1616 26.8231 20.4836 26.4914 20.4836 26.0846C20.4836 25.6779 20.1616 25.3462 19.7669 25.3462ZM22.6336 25.3462C22.2388 25.3462 21.9169 25.6779 21.9169 26.0846C21.9169 26.4914 22.2388 26.8231 22.6336 26.8231C23.0283 26.8231 23.3502 26.4914 23.3502 26.0846C23.3502 25.6779 23.0283 25.3462 22.6336 25.3462ZM25.5002 25.3462C25.1055 25.3462 24.7836 25.6779 24.7836 26.0846C24.7836 26.4914 25.1055 26.8231 25.5002 26.8231C25.895 26.8231 26.2169 26.4914 26.2169 26.0846C26.2169 25.6779 25.895 25.3462 25.5002 25.3462ZM28.3669 25.3462C27.9722 25.3462 27.6502 25.6779 27.6502 26.0846C27.6502 26.4914 27.9722 26.8231 28.3669 26.8231C28.7616 26.8231 29.0836 26.4914 29.0836 26.0846C29.0836 25.6779 28.7616 25.3462 28.3669 25.3462ZM31.2336 25.3462C30.8388 25.3462 30.5169 25.6779 30.5169 26.0846C30.5169 26.4914 30.8388 26.8231 31.2336 26.8231C31.6283 26.8231 31.9502 26.4914 31.9502 26.0846C31.9502 25.6779 31.6283 25.3462 31.2336 25.3462ZM34.1002 25.3462C33.7055 25.3462 33.3836 25.6779 33.3836 26.0846C33.3836 26.4914 33.7055 26.8231 34.1002 26.8231C34.495 26.8231 34.8169 26.4914 34.8169 26.0846C34.8169 25.6779 34.495 25.3462 34.1002 25.3462ZM36.9669 25.3462C36.5722 25.3462 36.2502 25.6779 36.2502 26.0846C36.2502 26.4914 36.5722 26.8231 36.9669 26.8231C37.3616 26.8231 37.6836 26.4914 37.6836 26.0846C37.6836 25.6779 37.3616 25.3462 36.9669 25.3462ZM14.0336 28.3C13.6388 28.3 13.3169 28.6317 13.3169 29.0385C13.3169 29.4452 13.6388 29.7769 14.0336 29.7769C14.4283 29.7769 14.7502 29.4452 14.7502 29.0385C14.7502 28.6317 14.4283 28.3 14.0336 28.3ZM19.7669 28.3C19.3722 28.3 19.0502 28.6317 19.0502 29.0385C19.0502 29.4452 19.3722 29.7769 19.7669 29.7769C20.1616 29.7769 20.4836 29.4452 20.4836 29.0385C20.4836 28.6317 20.1616 28.3 19.7669 28.3ZM25.5002 28.3C25.1055 28.3 24.7836 28.6317 24.7836 29.0385C24.7836 29.4452 25.1055 29.7769 25.5002 29.7769C25.895 29.7769 26.2169 29.4452 26.2169 29.0385C26.2169 28.6317 25.895 28.3 25.5002 28.3ZM31.2336 28.3C30.8388 28.3 30.5169 28.6317 30.5169 29.0385C30.5169 29.4452 30.8388 29.7769 31.2336 29.7769C31.6283 29.7769 31.9502 29.4452 31.9502 29.0385C31.9502 28.6317 31.6283 28.3 31.2336 28.3ZM36.9669 28.3C36.5722 28.3 36.2502 28.6317 36.2502 29.0385C36.2502 29.4452 36.5722 29.7769 36.9669 29.7769C37.3616 29.7769 37.6836 29.4452 37.6836 29.0385C37.6836 28.6317 37.3616 28.3 36.9669 28.3ZM14.0336 31.2539C13.6388 31.2539 13.3169 31.5856 13.3169 31.9923C13.3169 32.3991 13.6388 32.7308 14.0336 32.7308C14.4283 32.7308 14.7502 32.3991 14.7502 31.9923C14.7502 31.5856 14.4283 31.2539 14.0336 31.2539ZM16.9002 31.2539C16.5055 31.2539 16.1836 31.5856 16.1836 31.9923C16.1836 32.3991 16.5055 32.7308 16.9002 32.7308C17.295 32.7308 17.6169 32.3991 17.6169 31.9923C17.6169 31.5856 17.295 31.2539 16.9002 31.2539ZM19.7669 31.2539C19.3722 31.2539 19.0502 31.5856 19.0502 31.9923C19.0502 32.3991 19.3722 32.7308 19.7669 32.7308C20.1616 32.7308 20.4836 32.3991 20.4836 31.9923C20.4836 31.5856 20.1616 31.2539 19.7669 31.2539ZM22.6336 31.2539C22.2388 31.2539 21.9169 31.5856 21.9169 31.9923C21.9169 32.3991 22.2388 32.7308 22.6336 32.7308C23.0283 32.7308 23.3502 32.3991 23.3502 31.9923C23.3502 31.5856 23.0283 31.2539 22.6336 31.2539ZM25.5002 31.2539C25.1055 31.2539 24.7836 31.5856 24.7836 31.9923C24.7836 32.3991 25.1055 32.7308 25.5002 32.7308C25.895 32.7308 26.2169 32.3991 26.2169 31.9923C26.2169 31.5856 25.895 31.2539 25.5002 31.2539ZM28.3669 31.2539C27.9722 31.2539 27.6502 31.5856 27.6502 31.9923C27.6502 32.3991 27.9722 32.7308 28.3669 32.7308C28.7616 32.7308 29.0836 32.3991 29.0836 31.9923C29.0836 31.5856 28.7616 31.2539 28.3669 31.2539ZM30.5169 31.2539V38.6385H37.6836V31.2539H30.5169ZM31.9502 32.7308H36.2502V37.1616H31.9502V32.7308ZM14.0336 34.2077C13.6388 34.2077 13.3169 34.5394 13.3169 34.9462C13.3169 35.3529 13.6388 35.6846 14.0336 35.6846C14.4283 35.6846 14.7502 35.3529 14.7502 34.9462C14.7502 34.5394 14.4283 34.2077 14.0336 34.2077ZM19.7669 34.2077C19.3722 34.2077 19.0502 34.5394 19.0502 34.9462C19.0502 35.3529 19.3722 35.6846 19.7669 35.6846C20.1616 35.6846 20.4836 35.3529 20.4836 34.9462C20.4836 34.5394 20.1616 34.2077 19.7669 34.2077ZM25.5002 34.2077C25.1055 34.2077 24.7836 34.5394 24.7836 34.9462C24.7836 35.3529 25.1055 35.6846 25.5002 35.6846C25.895 35.6846 26.2169 35.3529 26.2169 34.9462C26.2169 34.5394 25.895 34.2077 25.5002 34.2077ZM14.0336 37.1616C13.6388 37.1616 13.3169 37.4933 13.3169 37.9C13.3169 38.3067 13.6388 38.6385 14.0336 38.6385C14.4283 38.6385 14.7502 38.3067 14.7502 37.9C14.7502 37.4933 14.4283 37.1616 14.0336 37.1616ZM16.9002 37.1616C16.5055 37.1616 16.1836 37.4933 16.1836 37.9C16.1836 38.3067 16.5055 38.6385 16.9002 38.6385C17.295 38.6385 17.6169 38.3067 17.6169 37.9C17.6169 37.4933 17.295 37.1616 16.9002 37.1616ZM19.7669 37.1616C19.3722 37.1616 19.0502 37.4933 19.0502 37.9C19.0502 38.3067 19.3722 38.6385 19.7669 38.6385C20.1616 38.6385 20.4836 38.3067 20.4836 37.9C20.4836 37.4933 20.1616 37.1616 19.7669 37.1616ZM22.6336 37.1616C22.2388 37.1616 21.9169 37.4933 21.9169 37.9C21.9169 38.3067 22.2388 38.6385 22.6336 38.6385C23.0283 38.6385 23.3502 38.3067 23.3502 37.9C23.3502 37.4933 23.0283 37.1616 22.6336 37.1616ZM25.5002 37.1616C25.1055 37.1616 24.7836 37.4933 24.7836 37.9C24.7836 38.3067 25.1055 38.6385 25.5002 38.6385C25.895 38.6385 26.2169 38.3067 26.2169 37.9C26.2169 37.4933 25.895 37.1616 25.5002 37.1616ZM28.3669 37.1616C27.9722 37.1616 27.6502 37.4933 27.6502 37.9C27.6502 38.3067 27.9722 38.6385 28.3669 38.6385C28.7616 38.6385 29.0836 38.3067 29.0836 37.9C29.0836 37.4933 28.7616 37.1616 28.3669 37.1616Z" fill="#2266C4"/>
</g>
<defs>
<clipPath id="clip0_164_2044">
<rect width="50" height="50" fill="white" transform="translate(0.5)"/>
</clipPath>
</defs>
</svg>
