<svg width="51" height="51" viewBox="0 0 51 51" fill="none" xmlns="http://www.w3.org/2000/svg">
<g id="icons8-management 1" clip-path="url(#clip0_75_3306)">
<path id="Vector" d="M25.5002 45.2917L20.2918 32.7917C20.2918 32.7917 8.8335 34.8646 8.8335 46.3334H26.4252C26.1512 45.8594 25.897 45.374 25.6762 44.8677L25.5002 45.2917Z" fill="#3F51B5"/>
<path id="Vector_2" d="M34.094 37.4271C34.4273 36.4219 35.0638 35.5552 35.8888 34.9229C33.2179 33.2584 30.7086 32.7917 30.7086 32.7917L25.6763 44.8677C25.8971 45.3729 26.1502 45.8594 26.4252 46.3334H31.7502C31.7502 46.3334 33.9252 37.9344 34.094 37.4271Z" fill="#303F9F"/>
<path id="Vector_3" d="M25.4998 39.0417L20.2915 32.7917V26.5417H30.7082V32.7917L25.4998 39.0417Z" fill="#FF9800"/>
<path id="Vector_4" d="M36.9582 20.2916C36.9582 21.4437 36.0248 22.375 34.8748 22.375C33.7228 22.375 32.7915 21.4437 32.7915 20.2916C32.7915 19.1406 33.7228 18.2083 34.8748 18.2083C36.0248 18.2083 36.9582 19.1406 36.9582 20.2916ZM18.2082 20.2916C18.2082 19.1406 17.2748 18.2083 16.1248 18.2083C14.9728 18.2083 14.0415 19.1406 14.0415 20.2916C14.0415 21.4437 14.9728 22.375 16.1248 22.375C17.2748 22.375 18.2082 21.4437 18.2082 20.2916Z" fill="#FFA726"/>
<path id="Vector_5" d="M34.875 14.0417C34.875 6.08856 16.125 8.86356 16.125 14.0417V21.3334C16.125 26.5115 20.3208 30.7084 25.5 30.7084C30.6781 30.7084 34.875 26.5115 34.875 21.3334V14.0417Z" fill="#FFB74D"/>
<path id="Vector_6" d="M25.5002 4.66669C19.172 4.66669 15.0835 9.79794 15.0835 16.125V18.5052L17.1668 20.2917V15.0834L29.6668 10.9167L33.8335 15.0834V20.2917L35.9168 18.4771V16.125C35.9168 11.9323 34.8356 7.77502 29.6668 6.75002L28.6252 4.66669H25.5002Z" fill="#424242"/>
<path id="Vector_7" d="M25.4998 45.2917L20.2915 32.7917L25.4998 33.8334L30.7082 32.7917L25.4998 45.2917Z" fill="white"/>
<path id="Vector_8" d="M26.5415 36.9583L27.1873 41.2604L26.6769 42.4791L25.4998 45.2916L23.8123 41.25L24.4582 36.9583L23.4165 35.9166L25.4998 33.8333L27.5832 35.9166L26.5415 36.9583Z" fill="#D32F2F"/>
<path id="Vector_9" d="M47.5833 40.1875C47.6875 39.7708 47.6875 39.3541 47.6875 39.0416C47.6875 38.7291 47.6875 38.2083 47.5833 37.8958L49.9792 36.125C50.1875 35.9166 50.2917 35.6041 50.1875 35.3958L47.7917 31.3333C47.6875 31.125 47.375 31.0208 47.0625 31.125L44.3542 32.375C43.7292 31.8541 43 31.4375 42.2708 31.125L41.9583 28.1041C41.9583 27.7916 41.6458 27.5833 41.4375 27.5833H36.6458C36.4375 27.5833 36.125 27.7916 36.125 28.1041L35.8125 31.125C35.0833 31.3333 34.3542 31.75 33.7292 32.2708L31.0208 31.0208C30.7083 30.9166 30.3958 31.0208 30.2917 31.2291L27.8958 35.3958C27.7917 35.6041 27.8958 35.9166 28.1042 36.125L30.5 37.8958C30.3958 38.3125 30.3958 38.7291 30.3958 39.0416C30.3958 39.3541 30.3958 39.875 30.5 40.1875L28.1042 41.9583C27.8958 42.1666 27.7917 42.4791 27.8958 42.6875L30.2917 46.75C30.3958 46.9583 30.7083 47.0625 31.0208 46.9583L33.7292 45.7083C34.3542 46.2291 35.0833 46.6458 35.8125 46.9583L36.125 49.9791C36.125 50.2916 36.4375 50.5 36.6458 50.5H41.3333C41.6458 50.5 41.8542 50.2916 41.8542 49.9791L42.1667 46.9583C42.8958 46.6458 43.625 46.2291 44.25 45.7083L46.9583 46.9583C47.2708 47.0625 47.5833 46.9583 47.6875 46.75L50.0833 42.6875C50.1875 42.4791 50.1875 42.0625 49.875 41.9583L47.5833 40.1875ZM39.0417 44.4583C36.0208 44.4583 33.625 42.0625 33.625 39.0416C33.625 36.0208 36.0208 33.625 39.0417 33.625C42.0625 33.625 44.4583 36.0208 44.4583 39.0416C44.4583 42.0625 42.0625 44.4583 39.0417 44.4583Z" fill="#607D8B"/>
<path id="Vector_10" d="M39.0415 32.7917C35.604 32.7917 32.7915 35.6042 32.7915 39.0417C32.7915 42.4792 35.604 45.2917 39.0415 45.2917C42.479 45.2917 45.2915 42.4792 45.2915 39.0417C45.2915 35.6042 42.479 32.7917 39.0415 32.7917ZM39.0415 42.1667C37.2707 42.1667 35.9165 40.8125 35.9165 39.0417C35.9165 37.2709 37.2707 35.9167 39.0415 35.9167C40.8123 35.9167 42.1665 37.2709 42.1665 39.0417C42.1665 40.8125 40.8123 42.1667 39.0415 42.1667Z" fill="#455A64"/>
</g>
<defs>
<clipPath id="clip0_75_3306">
<rect width="50" height="50" fill="white" transform="translate(0.5 0.5)"/>
</clipPath>
</defs>
</svg>
