<svg width="30" height="30" viewBox="0 0 30 30" fill="none" xmlns="http://www.w3.org/2000/svg">
<g id="notifications-circle-outline-svgrepo-com 1">
<path id="Vector" d="M26.25 15C26.25 8.78906 21.2109 3.75 15 3.75C8.78906 3.75 3.75 8.78906 3.75 15C3.75 21.2109 8.78906 26.25 15 26.25C21.2109 26.25 26.25 21.2109 26.25 15Z" stroke="white" stroke-width="2" stroke-miterlimit="10"/>
<path id="Vector_2" d="M21.3982 18.3398C20.4414 17.2066 19.7658 16.7303 19.7658 13.6055C19.7658 10.7426 18.2553 9.7248 17.0119 9.23027C16.9262 9.19449 16.8488 9.14119 16.7848 9.07379C16.7209 9.00639 16.6717 8.92638 16.6404 8.83887C16.423 8.12109 15.8131 7.5 14.9998 7.5C14.1865 7.5 13.5754 8.12109 13.3592 8.83945C13.3281 8.92698 13.2791 9.00702 13.2152 9.07443C13.1513 9.14185 13.074 9.19513 12.9883 9.23086C11.7438 9.72656 10.2344 10.7426 10.2344 13.6061C10.2344 16.7309 9.5582 17.2072 8.60137 18.3404C8.20469 18.8092 8.56328 19.6881 9.25703 19.6881H20.742C21.4316 19.6875 21.7932 18.8086 21.3982 18.3398Z" fill="white"/>
<path id="Vector_3" d="M12.9046 20.625C12.8717 20.6248 12.839 20.6316 12.8089 20.6449C12.7787 20.6582 12.7517 20.6777 12.7295 20.7021C12.7074 20.7266 12.6907 20.7554 12.6805 20.7867C12.6703 20.8181 12.6668 20.8512 12.6702 20.884C12.8021 21.9809 13.7759 22.5 14.9999 22.5C16.2111 22.5 17.1761 21.9639 17.3238 20.8875C17.3278 20.8545 17.3247 20.8209 17.3147 20.7892C17.3047 20.7574 17.2881 20.7281 17.2659 20.7033C17.2437 20.6784 17.2165 20.6586 17.1861 20.6451C17.1556 20.6316 17.1227 20.6248 17.0894 20.625H12.9046Z" fill="white"/>
</g>
</svg>
