<svg width="51" height="58" viewBox="0 0 51 58" fill="none" xmlns="http://www.w3.org/2000/svg">
<g id="Frame 80">
<path id="Vector" d="M5.91158 4.5C3.20017 4.5 1 6.65711 1 9.30646V30.8218C1 33.4712 3.20017 35.6191 5.91158 35.6191H46.0806C48.7922 35.6191 51 33.4712 51 30.8218V9.30646C51 6.65711 48.7922 4.5 46.0806 4.5H5.91158ZM5.91158 6.06298H46.0806C47.9123 6.06298 49.4003 7.51682 49.4003 9.30646V30.8218C49.4003 32.6034 47.9123 34.0561 46.0806 34.0561H5.91158C4.0879 34.0561 2.5997 32.6034 2.5997 30.8218V9.30646C2.5997 7.51682 4.0879 6.06298 5.91158 6.06298ZM23.6129 12.35C23.317 12.3383 23.0172 12.4055 22.7412 12.5499C22.2054 12.8392 21.8695 13.386 21.8695 13.9878V19.333C21.8695 19.9424 22.2054 20.4892 22.7412 20.7785C22.9972 20.9036 23.2769 20.9738 23.5489 20.9738C23.8689 20.9738 24.1797 20.888 24.4597 20.7083L28.6683 18.0356C29.1401 17.7307 29.4197 17.2232 29.4197 16.6604C29.4197 16.1056 29.1401 15.5977 28.6683 15.2928L24.4597 12.6202C24.1997 12.4521 23.9089 12.3617 23.6129 12.35ZM15.2145 26.0306C14.0227 26.0306 13.0225 26.8041 12.7025 27.8592H8.83134C8.39149 27.8592 8.03149 28.2106 8.03149 28.6407C8.03149 29.0703 8.39149 29.4222 8.83134 29.4222H12.7181C13.0621 30.4379 14.0467 31.1729 15.2145 31.1729C16.3743 31.1729 17.3575 30.4379 17.7094 29.4222H43.1608C43.6008 29.4222 43.9607 29.0703 43.9607 28.6407C43.9607 28.2106 43.6008 27.8592 43.1608 27.8592H17.7328C17.4049 26.8041 16.3983 26.0306 15.2145 26.0306ZM10.9122 37.8445C8.95183 37.8445 6.96919 38.5287 6.96919 40.0547V41.4742C6.41305 41.7348 6.02874 42.2889 6.02874 42.9303C6.02874 43.6049 6.45064 44.18 7.05043 44.4231C7.29921 45.6052 8.11302 46.5802 9.1969 47.0957V47.9108H8.31582C6.13263 47.9108 4.34781 49.6561 4.34781 51.7892V53.0301C4.34781 53.7269 4.92505 54.2909 5.63819 54.2909H16.3721C16.9796 54.2909 17.4719 53.8101 17.4719 53.2163V51.7831C17.4719 49.6443 15.6978 47.9108 13.5086 47.9108H12.526V47.1476C13.6592 46.6462 14.5128 45.6422 14.7693 44.4231C15.3692 44.18 15.791 43.6049 15.791 42.9303C15.791 42.5003 15.6181 42.0908 15.3036 41.7886C15.1684 41.6566 15.0151 41.5497 14.849 41.4711V40.0547C14.849 38.5287 12.8673 37.8445 10.9122 37.8445ZM25.7891 38.0521C23.8287 38.0521 21.8477 38.7367 21.8477 40.2623V41.6833C21.2915 41.9439 20.9056 42.4976 20.9056 43.1394C20.9056 43.8137 21.3275 44.3891 21.9273 44.6322C22.1761 45.8147 22.99 46.7878 24.0738 47.3033V48.1184H23.1943C21.0112 48.1184 19.2247 49.8641 19.2247 51.9968V53.285C19.2247 53.9555 19.7807 54.5 20.4667 54.5H31.249C31.8565 54.5 32.3488 54.0177 32.3488 53.4239V51.9907C32.3488 49.8519 30.5745 48.1184 28.3855 48.1184H27.4029V47.3552C28.5362 46.8538 29.3898 45.8513 29.6462 44.6322C30.2461 44.3891 30.6679 43.8122 30.6679 43.1379C30.6679 42.7075 30.495 42.2984 30.1805 41.9962C30.0453 41.8642 29.8919 41.7573 29.7259 41.6787V40.2623C29.7259 38.7367 27.7442 38.0521 25.7891 38.0521ZM41.0894 38.0521C39.129 38.0521 37.1479 38.7367 37.1479 40.2623V41.6833C36.5918 41.9439 36.2059 42.4976 36.2059 43.1394C36.2059 43.8137 36.6278 44.3891 37.2276 44.6322C37.4764 45.8147 38.2902 46.7878 39.3741 47.3033V48.1184H38.4945C36.3114 48.1184 34.525 49.8641 34.525 51.9968V53.285C34.525 53.9555 35.0809 54.5 35.7669 54.5H46.5493C47.1568 54.5 47.6506 54.0177 47.6506 53.4239V51.9907C47.6506 49.8519 45.8748 48.1184 43.6857 48.1184H42.7031V47.3552C43.8365 46.8538 44.6901 45.8513 44.9464 44.6322C45.5463 44.3891 45.9697 43.8122 45.9697 43.1379C45.9697 42.7075 45.7967 42.2984 45.4823 41.9962C45.3472 41.8642 45.1938 41.7573 45.0277 41.6787V40.2623C45.0277 38.7367 43.0445 38.0521 41.0894 38.0521Z" fill="#2266C4"/>
<path id="Vector_2" d="M23.6127 12.3499C23.3168 12.3382 23.0169 12.4055 22.741 12.5499C22.2052 12.8391 21.8693 13.3859 21.8693 13.9877V19.333C21.8693 19.9424 22.2052 20.4892 22.741 20.7784C22.997 20.9036 23.2766 20.9738 23.5487 20.9738C23.8686 20.9738 24.1795 20.8879 24.4594 20.7082L28.668 18.0356C29.1399 17.7307 29.4194 17.2232 29.4194 16.6603C29.4194 16.1055 29.1399 15.5976 28.668 15.2927L24.4594 12.6201C24.1995 12.452 23.9087 12.3617 23.6127 12.3499ZM15.2143 26.0306C14.0224 26.0306 13.0222 26.804 12.7022 27.8591H8.8311C8.39124 27.8591 8.03125 28.2106 8.03125 28.6406C8.03125 29.0703 8.39124 29.4221 8.8311 29.4221H12.7179C13.0619 30.4379 14.0464 31.1728 15.2143 31.1728C16.374 31.1728 17.3572 30.4379 17.7091 29.4221H43.1606C43.6006 29.4221 43.9605 29.0703 43.9605 28.6406C43.9605 28.2106 43.6006 27.8591 43.1606 27.8591H17.7326C17.4047 26.804 16.398 26.0306 15.2143 26.0306Z" fill="#2266C4"/>
</g>
</svg>
