<svg width="25" height="24" viewBox="0 0 25 24" fill="none" xmlns="http://www.w3.org/2000/svg">
<g id="Outline/information">
<path id="Vector" fill-rule="evenodd" clip-rule="evenodd" d="M4.5 12C4.5 7.58172 8.08172 4 12.5 4C16.9183 4 20.5 7.58172 20.5 12C20.5 16.4183 16.9183 20 12.5 20C8.08172 20 4.5 16.4183 4.5 12ZM12.5 2C6.97715 2 2.5 6.47715 2.5 12C2.5 17.5228 6.97715 22 12.5 22C18.0228 22 22.5 17.5228 22.5 12C22.5 6.47715 18.0228 2 12.5 2ZM12.5 10C11.9477 10 11.5 9.55228 11.5 9V8C11.5 7.44772 11.9477 7 12.5 7C13.0523 7 13.5 7.44772 13.5 8V9C13.5 9.55228 13.0523 10 12.5 10ZM12.5 17C11.9477 17 11.5 16.5523 11.5 16V12C11.5 11.4477 11.9477 11 12.5 11C13.0523 11 13.5 11.4477 13.5 12V16C13.5 16.5523 13.0523 17 12.5 17Z" fill="#64748B"/>
</g>
</svg>
