<svg width="53" height="60" viewBox="0 0 53 60" fill="none" xmlns="http://www.w3.org/2000/svg">
<g id="Frame 79">
<path id="Vector" d="M17.8327 8.50012C15.3841 10.1112 12.5068 10.9807 9.55845 11.0003C6.6873 10.9901 3.88142 10.1593 1.48393 8.60969C0.539459 12.4751 0.986088 16.5419 2.74816 20.1212C4.28005 23.107 6.69022 25.573 9.66676 27.2001C12.6439 25.5733 15.0547 23.1072 16.5871 20.1212C18.3669 16.5074 18.8074 12.3981 17.8327 8.50012ZM26.2237 9.36506C23.9957 9.45284 21.8007 9.92314 19.7383 10.7546L20.3984 12.3268C22.4922 11.4799 24.7357 11.0461 27.0005 11.0501C29.6991 11.0523 32.36 11.6721 34.7715 12.8603C37.183 14.0485 39.2786 15.7723 40.8917 17.8945C42.5047 20.0168 43.5906 22.479 44.0631 25.0853C44.5355 27.6916 44.3815 30.3701 43.6133 32.9077L45.2735 33.3925C46.1383 30.5394 46.2967 27.5252 45.7355 24.6C45.1744 21.6749 43.9099 18.9232 42.0471 16.5737C40.1843 14.2241 37.7769 12.3444 35.0248 11.0907C32.2728 9.83694 29.2556 9.24536 26.2237 9.36506ZM6.20408 13.6001C6.89329 13.6009 7.55406 13.8698 8.04141 14.3478C8.52876 14.8259 8.80288 15.474 8.80363 16.1501H7.0706C7.0706 15.9247 6.9793 15.7085 6.8168 15.5491C6.6543 15.3897 6.43389 15.3001 6.20408 15.3001C5.97426 15.3001 5.75386 15.3897 5.59136 15.5491C5.42885 15.7085 5.33756 15.9247 5.33756 16.1501H3.60453C3.60528 15.474 3.8794 14.8259 4.36675 14.3478C4.8541 13.8698 5.51487 13.6009 6.20408 13.6001ZM13.1362 13.6001C13.8254 13.6009 14.4862 13.8698 14.9735 14.3478C15.4609 14.8259 15.735 15.474 15.7358 16.1501H14.0027C14.0027 15.9247 13.9114 15.7085 13.7489 15.5491C13.5864 15.3897 13.366 15.3001 13.1362 15.3001C12.9064 15.3001 12.686 15.3897 12.5235 15.5491C12.361 15.7085 12.2697 15.9247 12.2697 16.1501H10.5367C10.5374 15.474 10.8115 14.8259 11.2989 14.3478C11.7862 13.8698 12.447 13.6009 13.1362 13.6001ZM7.0706 20.4001H8.80363C8.80386 20.6255 8.89523 20.8416 9.05768 21.0009C9.22013 21.1603 9.4404 21.2499 9.67015 21.2501C9.89989 21.2499 10.1202 21.1603 10.2826 21.0009C10.4451 20.8416 10.5364 20.6255 10.5367 20.4001H12.2697C12.2697 21.0764 11.9958 21.725 11.5083 22.2032C11.0208 22.6815 10.3596 22.9501 9.67015 22.9501C8.9807 22.9501 8.3195 22.6815 7.83199 22.2032C7.34448 21.725 7.0706 21.0764 7.0706 20.4001ZM27.3254 20.4068C26.2749 20.3638 25.2263 20.5297 24.2427 20.8944C23.2592 21.2591 22.361 21.8152 21.6021 22.5292C20.8433 23.2432 20.2394 24.1003 19.827 25.0491C19.4145 25.9979 19.2018 27.0187 19.2018 28.0501C19.2018 30.079 20.0235 32.0248 21.486 33.4595C22.9485 34.8941 24.9322 35.7001 27.0005 35.7001C29.0407 35.7001 30.9997 34.9159 32.4573 33.5156C33.9149 32.1153 34.755 30.2104 34.7975 28.2095C34.84 26.2087 34.0815 24.2711 32.6847 22.8124C31.2878 21.3538 29.3639 20.4901 27.3254 20.4068ZM26.134 22.9501H27.867V28.0501C27.867 28.208 27.8223 28.3627 27.7377 28.497C27.6531 28.6313 27.532 28.7399 27.3881 28.8105L23.922 30.5105L23.1469 28.9898L26.134 27.5255V22.9501ZM9.68876 28.8603L7.95742 28.94C8.12602 32.6551 9.42483 36.2357 11.6865 39.2203C13.9482 42.2049 17.0691 44.4568 20.6472 45.686L21.2226 44.0822C17.9704 42.9647 15.1338 40.9176 13.0782 38.2047C11.0226 35.4917 9.84206 32.2372 9.68876 28.8603ZM52.4934 32.3001C50.0448 33.9112 47.1674 34.7807 44.2191 34.8003C41.348 34.7901 38.5421 33.9593 36.1446 32.4097C35.2002 36.2751 35.6468 40.3419 37.4089 43.9212C38.9407 46.907 41.3509 49.373 44.3275 51.0001C47.3046 49.3733 49.7154 46.9072 51.2477 43.9212C53.0276 40.3074 53.4681 36.1981 52.4934 32.3001ZM38.2652 38.2501H39.9983C39.9983 38.4756 40.0895 38.6918 40.2521 38.8512C40.4146 39.0106 40.635 39.1001 40.8648 39.1001C41.0946 39.1001 41.315 39.0106 41.4775 38.8512C41.64 38.6918 41.7313 38.4756 41.7313 38.2501H43.4643C43.4643 38.9264 43.1904 39.575 42.7029 40.0532C42.2154 40.5315 41.5542 40.8001 40.8648 40.8001C40.1753 40.8001 39.5141 40.5315 39.0266 40.0532C38.5391 39.575 38.2652 38.9264 38.2652 38.2501ZM45.1974 38.2501H46.9304C46.9304 38.4756 47.0217 38.6918 47.1842 38.8512C47.3467 39.0106 47.5671 39.1001 47.7969 39.1001C48.0267 39.1001 48.2471 39.0106 48.4096 38.8512C48.5721 38.6918 48.6634 38.4756 48.6634 38.2501H50.3965C50.3965 38.9264 50.1226 39.575 49.6351 40.0532C49.1476 40.5315 48.4864 40.8001 47.7969 40.8001C47.1075 40.8001 46.4463 40.5315 45.9587 40.0532C45.4712 39.575 45.1974 38.9264 45.1974 38.2501ZM27.0005 40.8001C25.8514 40.8001 24.7494 41.2479 23.9369 42.0449C23.1244 42.8419 22.6679 43.923 22.6679 45.0501C22.6679 46.1773 23.1244 47.2583 23.9369 48.0553C24.7494 48.8524 25.8514 49.3001 27.0005 49.3001C28.1496 49.3001 29.2516 48.8524 30.0641 48.0553C30.8766 47.2583 31.3331 46.1773 31.3331 45.0501C31.3331 43.923 30.8766 42.8419 30.0641 42.0449C29.2516 41.2479 28.1496 40.8001 27.0005 40.8001ZM27.0005 49.3001H22.321C21.4486 49.3476 20.6309 49.7319 20.0464 50.369C19.462 51.006 19.1583 51.8441 19.2018 52.7001V59.5001H34.7992V52.7001C34.8427 51.8441 34.539 51.006 33.9546 50.369C33.3701 49.7319 32.5524 49.3476 31.68 49.3001H27.0005ZM35.251 43.0032C34.457 43.426 33.6302 43.7868 32.7784 44.0822L33.3538 45.686C34.2923 45.3601 35.2034 44.9627 36.0786 44.4973L35.251 43.0032ZM44.407 44.2018C45.0829 44.2212 45.7244 44.4982 46.1955 44.974C46.6666 45.4497 46.9302 46.0869 46.9304 46.7501H45.1974C45.1974 46.5247 45.1061 46.3085 44.9436 46.1491C44.7811 45.9897 44.5607 45.9001 44.3308 45.9001C44.101 45.9001 43.8806 45.9897 43.7181 46.1491C43.5556 46.3085 43.4643 46.5247 43.4643 46.7501H41.7313C41.7314 46.409 41.8012 46.0714 41.9367 45.7572C42.0722 45.4431 42.2705 45.1588 42.52 44.9211C42.7695 44.6835 43.0651 44.4974 43.3892 44.3739C43.7133 44.2503 44.0594 44.1918 44.407 44.2018Z" fill="#2266C4"/>
<path id="Vector_2" d="M27.3253 20.4068C26.2747 20.3638 25.2261 20.5297 24.2425 20.8944C23.259 21.2592 22.3608 21.8152 21.6019 22.5292C20.8431 23.2432 20.2393 24.1004 19.8268 25.0491C19.4143 25.9979 19.2017 27.0187 19.2017 28.0501C19.2017 30.0791 20.0233 32.0249 21.4858 33.4595C22.9484 34.8942 24.932 35.7001 27.0003 35.7001C29.0405 35.7002 30.9995 34.9159 32.4571 33.5156C33.9147 32.1153 34.7548 30.2104 34.7974 28.2096C34.8399 26.2087 34.0814 24.2711 32.6845 22.8125C31.2877 21.3538 29.3637 20.4902 27.3253 20.4068ZM26.1338 22.9501H27.8668V28.0501C27.8669 28.208 27.8221 28.3628 27.7375 28.4971C27.6529 28.6314 27.5318 28.7399 27.3879 28.8105L23.9218 30.5105L23.1467 28.9898L26.1338 27.5255V22.9501Z" fill="#2266C4"/>
</g>
</svg>
