<svg width="32" height="32" viewBox="0 0 32 32" fill="none" xmlns="http://www.w3.org/2000/svg">
<g id="icons8-male-user (1) 1" clip-path="url(#clip0_163_1945)">
<path id="Vector" d="M16 0C7.164 0 0 7.164 0 16C0 24.836 7.164 32 16 32C24.836 32 32 24.836 32 16C32 7.164 24.836 0 16 0ZM16 6C19.314 6 22 8.686 22 12C22 15.314 19.314 18 16 18C12.686 18 10 15.314 10 12C10 8.686 12.686 6 16 6ZM16 28C12.08 28 8.612 26.112 6.422 23.206C7.42 22.456 8.654 22 10 22H22C23.346 22 24.58 22.456 25.578 23.206C23.388 26.112 19.92 28 16 28Z" fill="#AEAEAE"/>
</g>
<defs>
<clipPath id="clip0_163_1945">
<rect width="32" height="32" fill="white"/>
</clipPath>
</defs>
</svg>
